<?xml version="1.0" encoding="utf-8"?>
<!-- Generator: Adobe Illustrator 27.8.0, SVG Export Plug-In . SVG Version: 6.00 Build 0)  -->
<svg version="1.1" xmlns="http://www.w3.org/2000/svg" xmlns:xlink="http://www.w3.org/1999/xlink" x="0px" y="0px"
	 viewBox="0 0 160 160" style="enable-background:new 0 0 160 160;" xml:space="preserve">
<style type="text/css">
	.st0{display:none;}
	.st1{display:inline;fill:#727272;}
	.st2{display:inline;fill:#CCCCCC;}
	.st3{display:inline;fill:none;stroke:#CCCCCC;stroke-width:2;stroke-miterlimit:10;}
	.st4{display:inline;fill:none;stroke:#CCCCCC;stroke-width:2;stroke-miterlimit:10;stroke-dasharray:8.25,4.13;}
	.st5{display:inline;fill:none;stroke:#CCCCCC;stroke-width:2;stroke-miterlimit:10;stroke-dasharray:7.08,3.54;}
	.st6{display:inline;}
	.st7{fill:#CCCCCC;stroke:#FFFFFF;stroke-width:5;stroke-miterlimit:10;}
	.st8{fill:#CCCCCC;}
	.st9{fill:#727272;stroke:#FFFFFF;stroke-width:5;stroke-miterlimit:10;}
	.st10{fill:#727272;}
	.st11{display:inline;fill:#CCCCCC;stroke:#FFFFFF;stroke-width:5;stroke-miterlimit:10;}
	.st12{fill:#FFFFFF;stroke:#CCCCCC;stroke-width:5;stroke-miterlimit:10;}
	.st13{fill:#B3B3B3;}
	.st14{fill:none;stroke:#FFFFFF;stroke-width:5;stroke-miterlimit:10;}
</style>
<g id="Layer_1" class="st0">
	<rect y="32" class="st1" width="72" height="12"/>
	<rect y="52" class="st1" width="44" height="12"/>
	<rect y="88" class="st2" width="68" height="8"/>
	<rect y="104" class="st2" width="72" height="8"/>
	<rect y="72" class="st2" width="72" height="8"/>
	<rect y="120" class="st2" width="40" height="8"/>
	<polyline class="st3" points="159,83 159,87 155,87 	"/>
	<line class="st4" x1="150.9" y1="87" x2="91.1" y2="87"/>
	<polyline class="st3" points="89,87 85,87 85,83 	"/>
	<line class="st5" x1="85" y1="79.5" x2="85" y2="38.8"/>
	<polyline class="st3" points="85,37 85,33 89,33 	"/>
	<line class="st4" x1="93.1" y1="33" x2="152.9" y2="33"/>
	<polyline class="st3" points="155,33 159,33 159,37 	"/>
	<line class="st5" x1="159" y1="40.5" x2="159" y2="81.2"/>
</g>
<g id="Layer_2" class="st0">
	<g class="st6">
		<path class="st7" d="M35.5,128c-3.1,0.8-6.1,0.4-8.9-1.2c-2.8-1.6-4.7-4-5.5-7.2L2.7,51.3c-0.8-3.1-0.4-6.1,1.2-8.9
			c1.6-2.8,4-4.7,7.2-5.5l34.2-9.2L59.7,36l45.6-12.2c3.1-0.8,6.1-0.4,8.9,1.2s4.7,4,5.5,7.2l15.3,57c0.8,3.1,0.4,6.1-1.2,8.9
			c-1.6,2.8-4,4.7-7.2,5.5L35.5,128z M32.4,116.6l91.2-24.4l-15.3-57L58.1,48.7l-14.4-8.3l-29.5,7.9L32.4,116.6z M32.4,116.6
			L14.1,48.2L32.4,116.6z"/>
		<g>
			<rect x="30.3" y="56.9" transform="matrix(0.9659 -0.2588 0.2588 0.9659 -13.5799 18.7203)" class="st8" width="68" height="8"/>
			<rect x="34.4" y="71.9" transform="matrix(0.9659 -0.2588 0.2588 0.9659 -17.239 20.801)" class="st8" width="72" height="8"/>
			<rect x="39.1" y="91.5" transform="matrix(0.9659 -0.2588 0.2588 0.9659 -22.6963 18.5405)" class="st8" width="40" height="8"/>
		</g>
	</g>
	<g class="st6">
		<path class="st9" d="M51,139.1c-3.2,0-6-1.2-8.3-3.5c-2.3-2.3-3.5-5.1-3.5-8.3V56.5c0-3.2,1.2-6,3.5-8.3c2.3-2.3,5.1-3.5,8.3-3.5
			h35.4l11.8,11.8h47.2c3.2,0,6,1.2,8.3,3.5s3.5,5.1,3.5,8.3v59c0,3.2-1.2,6-3.5,8.3s-5.1,3.5-8.3,3.5H51z M51,127.3h94.4v-59H93.3
			L81.5,56.5H51V127.3z M51,127.3V56.5V127.3z"/>
		<g>
			<rect x="62.2" y="77.8" class="st10" width="68" height="8"/>
			<rect x="62.2" y="93.8" class="st10" width="72" height="8"/>
			<rect x="62.2" y="109.8" class="st10" width="40" height="8"/>
		</g>
	</g>
</g>
<g id="Layer_3">
	<g class="st0">
		<path class="st11" d="M35.8,107.5c-3.1,0.8-6.1,0.4-8.9-1.2c-2.8-1.6-4.7-4-5.5-7.2L3,30.8c-0.8-3.1-0.4-6.1,1.2-8.9
			s4-4.7,7.2-5.5l34.2-9.2L60,15.5l45.6-12.2c3.1-0.8,6.1-0.4,8.9,1.2c2.8,1.6,4.7,4,5.5,7.2l15.3,57c0.8,3.1,0.4,6.1-1.2,8.9
			c-1.6,2.8-4,4.7-7.2,5.5L35.8,107.5z M32.7,96.1l91.2-24.4l-15.3-57L58.3,28.1l-14.4-8.3l-29.5,7.9L32.7,96.1z M32.7,96.1
			L14.4,27.7L32.7,96.1z"/>
		<g class="st6">
			<rect x="30.6" y="36.4" transform="matrix(0.9659 -0.2588 0.2588 0.9659 -8.2604 18.0905)" class="st8" width="68" height="8"/>
			<rect x="34.6" y="51.4" transform="matrix(0.9659 -0.2588 0.2588 0.9659 -11.9195 20.1713)" class="st8" width="72" height="8"/>
			<rect x="39.3" y="71" transform="matrix(0.9659 -0.2588 0.2588 0.9659 -17.3768 17.9108)" class="st8" width="40" height="8"/>
		</g>
	</g>
	<g>
		<g>
			<path class="st12" d="M121.5,12.1l15.3,57c0.8,3.1,0.4,6.1-1.2,8.9c-1.6,2.8-4,4.7-7.1,5.5l-91.2,24.4c-3.1,0.8-6.1,0.4-9-1.2
				c-2.8-1.6-4.7-4-5.5-7.2L4.5,31.2c-0.8-3.1-0.4-6.1,1.2-8.9c1.6-2.8,4-4.7,7.2-5.5L47,7.6L61.5,16l45.6-12.2
				c3.1-0.8,6.1-0.4,8.9,1.2C118.8,6.6,120.7,9,121.5,12.1z"/>
			<g>
				
					<rect x="32.1" y="36.9" transform="matrix(0.9659 -0.2588 0.2588 0.9659 -8.3324 18.5014)" class="st13" width="68" height="8"/>
				
					<rect x="36.2" y="51.8" transform="matrix(0.9659 -0.2588 0.2588 0.9659 -11.9915 20.5822)" class="st13" width="72" height="8"/>
				
					<rect x="40.9" y="71.4" transform="matrix(0.9659 -0.2588 0.2588 0.9659 -17.4488 18.3217)" class="st13" width="40" height="8"/>
			</g>
		</g>
		<g>
			<path class="st14" d="M50.2,159.1c-4.6,0-8.6-1.7-11.9-4.9c-3.2-3.2-4.9-7.3-4.9-11.9V71.6c0-4.5,1.7-8.6,4.9-11.9
				c3.3-3.3,7.3-4.9,11.9-4.9h37.5l11.8,11.8h45.1c4.5,0,8.6,1.7,11.9,4.9c3.3,3.3,4.9,7.3,4.9,11.9v59c0,4.5-1.7,8.6-4.9,11.9
				c-3.2,3.2-7.3,4.9-11.9,4.9H50.2z"/>
			<path class="st12" d="M156.3,83.4v59c0,3.2-1.1,6-3.5,8.3c-2.3,2.3-5.1,3.5-8.3,3.5H50.2c-3.2,0-6-1.2-8.3-3.5
				c-2.3-2.3-3.5-5.1-3.5-8.3V71.6c0-3.2,1.2-6,3.5-8.3c2.3-2.3,5.1-3.5,8.3-3.5h35.4l11.8,11.8h47.2c3.2,0,6,1.2,8.3,3.5
				C155.2,77.3,156.3,80.1,156.3,83.4z"/>
			<g>
				<rect x="61.3" y="92.8" class="st13" width="68" height="8"/>
				<rect x="61.3" y="108.8" class="st13" width="72" height="8"/>
				<rect x="61.3" y="124.8" class="st13" width="40" height="8"/>
			</g>
		</g>
	</g>
</g>
</svg>
