<?xml version="1.0" encoding="utf-8"?>
<svg viewBox="0 0 500 500" xmlns="http://www.w3.org/2000/svg">
  <path d="M 17.460600876273627 49.70301813540968 C 15.022524130599404 63.80412337983212 14.621901850679276 78.16363359161647 11.99670124053955 92.21846008300781 C 9.91478675640288 103.36463562914942 5.907130011451599 114.3075931845245 4.641236782073975 125.59880065917969 C 3.6046918103491166 134.84432315740028 4.82496302729555 144.18281657818065 3.8334972858428955 153.4275665283203 C 2.9428736317276787 161.73203196543298 2.6226891559988377 169.78423790552537 1.800158143043518 178.07574462890625 C 1.5804683096536811 180.29032341307325 0.38509194916136336 186.15070916950896 1.8579870462417603 188.21632385253906 C 4.036463140516775 191.27145806806084 10.225332510635337 192.2297079481704 13.285726547241211 193.78282165527344 C 28.482401496627716 201.49495410749108 43.973788876669744 203.696033951434 60.86959457397461 204.52593994140625 C 76.80269544620266 205.30855878122892 92.42542615734314 203.05453017870812 107.9796371459961 199.6533966064453 C 116.06053458316545 197.88640170148875 124.4166216785842 196.1625541617741 131.01792907714844 190.82049560546875 C 148.96066358690123 176.30047212766684 142.96201087351295 144.53530215539152 134.8607635498047 126.95125579833984 C 132.36125578184323 121.52598500910946 128.81811482487933 116.37418864421485 125.42904663085938 111.4754867553711 C 117.74455200206802 100.36799460773797 104.8767859061844 92.21237328420933 93.17170715332031 85.82743072509766 C 72.3161140741626 74.4510216758167 49.44805717944321 71.56450083579007 28.17760467529297 61.871341705322266 C 27.305821721457527 61.47406144543558 26.453052517080433 61.03621211972335 25.595823287963867 60.60843276977539 C 19.916167907103898 57.774139206014574 24.50299140621216 54.7918173442188 21.866790771484375 51.402442932128906 C 20.650207231643765 49.83827628040086 17.42148818242792 49.19791346532577 15.699617385864258 48.44197463989258" style="stroke: rgb(0, 0, 0); fill: rgb(216, 216, 216);"/>
  <path d="M 199.88843650591326 91.58234395510443 C 194.89476906822077 111.31212814752338 190.9518672545982 130.85104402080268 188.14730834960938 151.04351806640625 C 185.79884218015366 167.95218134652427 184.1187824190957 184.8540487250121 182.25062561035156 201.8117218017578 C 181.8831725930546 205.14717421625534 181.50414720134728 208.50717995215317 181.33282470703125 211.85716247558594 C 181.3294822334663 211.92252008126584 180.89827188774274 217.38573123369497 180.94107055664062 217.39381408691406 C 190.31037470872513 219.16327823560366 199.66909816132969 221.24219907336573 209.1000213623047 222.6525115966797 C 210.1732169696111 222.81299866381997 217.9752112891098 224.7514049131974 218.7705078125 223.90609741210938 C 219.98319520476966 222.61715207032583 218.03252203076548 220.44257630326774 217.75942993164062 218.69403076171875 C 216.60085402302025 211.2759372099239 216.7795592520195 212.53952253068834 216.0693359375 203.96444702148438 C 214.76995206788808 188.27598035251538 214.80614285467004 172.52774993690866 216.85655212402344 156.90476989746094 C 219.2005734665536 139.04462890329881 223.73564207521034 122.10387195822749 228.3066864013672 104.74681854248047 C 230.31031038546408 97.13870843992962 232.12426503511966 89.4540094251391 233.02439880371094 81.6264419555664 C 233.28806261780565 79.33362019270653 233.3705455352622 76.988180939126 233.50941467285156 74.68324279785156 C 233.57633081669232 73.57257433052335 234.00651514890362 70.29659170632316 233.64186096191406 71.34782409667969 C 231.52388136236826 77.4535780866119 212.78145038499878 75.834228515625 208.28855895996094 75.834228515625 C 208.0111077966372 75.834228515625 198.27019399421684 75.72978295658159 198.2636260986328 75.834228515625 C 197.92701161398463 81.18721983246914 197.99817592310322 86.85364267000985 196.9522247314453 92.4180679321289 C 196.86626689779519 92.87536072442605 196.76800998014002 97.12962910519921 196.7059783935547 97.18801879882812" style="stroke: rgb(0, 0, 0); fill: rgb(216, 216, 216);"/>
  <path d="M 246.85484123475314 75.67379649005512 C 250.82449815975258 97.83648094651224 253.65468890570108 120.21247119077316 258.045654296875 142.3374786376953 C 261.2459600381696 158.46304148109547 265.87195249612665 174.19723364081045 269.32977294921875 190.2589874267578 C 270.87522589673557 197.43769582631762 272.2518764725747 204.65174830357827 273.7415466308594 211.8422393798828 C 274.3366031390831 214.71451851394718 276.7439148470452 226.06207592452188 277.2541809082031 228.28990173339844 C 277.6787142230758 230.1434176687027 279.3121795084034 236.35599708606642 279.8546447753906 238.21035766601562 C 280.3355935178241 239.85443046333583 280.65450624537857 240.57636706027859 281.33953857421875 242.0718231201172 C 286.64520288260474 253.65432442320025 278.9329279933073 234.98632594161046 283.6284484863281 233.24266052246094 C 288.3186998269074 231.50095178498583 295.2811692888307 233.2398044273611 299.9678955078125 233.7090301513672 C 308.1866755481382 234.53187809141744 316.29780487772604 235.0334930419922 324.5526428222656 235.0334930419922 C 325.07092701350336 235.0334930419922 323.65350341796875 234.28326832209711 323.65350341796875 233.76498413085938 C 323.65350341796875 232.28675570289911 323.93891865365975 230.861463741671 324.35491943359375 229.43714904785156 C 325.5435286500287 225.36755674457234 327.44573970921914 221.49248169532297 329.2890319824219 217.6978759765625 C 335.8158112101131 204.2618332271119 343.9704922299295 191.57185156065137 349.842529296875 177.8183135986328 C 353.15758528921873 170.05375967686518 353.99890126812477 161.62455310465438 356.78759765625 153.70924377441406 C 358.8442778352209 147.87165604731376 361.04943837237334 142.12668884144506 363.65618896484375 136.5098114013672 C 368.5313319097257 126.0051315507676 368.7207408386261 113.96968591803919 373.5001525878906 103.6219482421875 C 375.8965335679561 98.43362736631109 379.46693878856445 93.80738932593454 382.08123779296875 88.71514892578125 C 383.0286537035384 86.86973278653204 386.80917209073635 77.52581465736276 384.40557861328125 75.15706634521484 C 383.620151194775 74.38302535644031 377.92497337400863 75.48060235434443 377.0743713378906 75.48912048339844 C 370.9462077428008 75.55048935644429 364.83867585436525 75.20330427455124 358.72021484375 74.90523529052734 C 343.8694312682539 74.18175957259318 359.49322528919856 74.89887083917215 348.4248046875 74.46685028076172 C 347.6258815206298 74.43566685856457 341.78729842903766 74.17346969161329 340.57684326171875 74.08070373535156 C 339.19918182577857 73.97512355034317 337.8249851638114 73.82783011355166 336.4504699707031 73.68709564208984 C 327.44085306105495 72.76461498839444 329.746518619365 71.71338746113253 329.2125549316406 79.9009017944336 C 329.11873260884204 81.33952324071726 328.5409943286483 85.05916463093641 328.3693542480469 86.08300018310547 C 327.8248529376954 89.33095833942357 327.1222466212686 92.59284424079536 326.5580139160156 95.83743286132812 C 323.96816098099475 110.73023734357571 326.6594074648126 96.50942265902032 324.07135009765625 109.8917236328125 C 322.3561597267148 118.76061273186257 320.08282238849836 127.19481510393848 317.6896667480469 135.88302612304688 C 314.6647024319172 146.86498143743216 311.85783383775436 158.0707348238182 309.54510498046875 169.22232055664062 C 308.78283105665275 172.8978759450512 308.13489493901585 176.5384575368752 307.6722106933594 180.2601776123047 C 307.5299600589029 181.40440728290466 307.39433432239844 182.5517387918549 307.1107177734375 183.67022705078125 C 306.9668049317749 184.23777088522274 306.873779296875 185.996195995043 306.873779296875 185.4106903076172 C 306.873779296875 175.70632456678993 302.34053835241804 165.59919588155577 300.6842346191406 156.1156768798828 C 297.5948555273918 138.426780374169 295.90495312447507 120.50907210211084 291.84759521484375 102.98770141601562 C 290.39747621598633 96.72548026524744 288.12527425246776 90.70520065324504 287.0925598144531 84.35372924804688 C 286.9261951361171 83.33054175459267 287.50961264974086 77.89862543154904 286.7586669921875 77.14749908447266 C 286.017438991961 76.40609273294677 279.65530210283333 76.3245309541734 278.8528747558594 76.21104431152344 C 270.79703465808467 75.07171344266776 262.6982943174041 74.27532831417197 254.59085083007812 73.61620330810547 C 251.44945917348318 73.36081209903355 251.76532712555195 73.2821769078077 248.68484497070312 73.09387969970703 C 247.75172036622186 73.03684162936558 245.88294982910156 73.90563039067085 245.88294982910156 72.97076416015625" style="stroke: rgb(0, 0, 0); fill: rgb(216, 216, 216);"/>
  <path d="M 404.4834003634119 80.16393177949857 C 408.8470611721538 80.21726430649444 413.2040652268399 80.21303699429093 417.5676574707031 80.13967895507812 C 419.88086697122367 80.10079069426841 422.1949657948366 80.09404020874246 424.50714111328125 80.01469421386719 C 429.77855617552865 79.83379717324146 426.19928796204545 79.82104395660811 430.47283935546875 79.77218627929688 C 437.97264256039796 79.68644425091081 438.00348362899086 77.94954465339634 435.6009521484375 85.381591796875 C 434.9364207364516 87.43726882844673 434.2422925430467 89.48515239919936 433.6664733886719 91.56742095947266 C 432.8128232851471 94.65437761685169 432.0447151608049 97.76508900813675 431.31414794921875 100.88346862792969 C 429.1222662005147 110.23937629221584 429.04603258955694 112.25445027469695 427.18218994140625 122.92188262939453 C 423.20555189623195 145.68159219398865 419.1552113428206 168.36677067873669 417.4725341796875 191.44168090820312 C 416.54513499864544 204.15930334837483 416.27849248273833 217.06020714217715 416.467041015625 229.81582641601562 C 416.53168154173596 234.18886463651424 417.0469195723709 238.53402219124735 416.92034912109375 242.9075469970703 C 416.8734030911148 244.52972361551602 416.79894924525985 246.15237323703377 416.67596435546875 247.77078247070312 C 416.6241905241157 248.45209581632236 416.59576416015625 250.50232371261538 416.59576416015625 249.8190460205078 C 416.59576416015625 245.58069707412955 410.37144559201664 247.30843660073785 407.7945861816406 247.28948974609375 C 401.34815887911054 247.24209114895532 394.72172524084823 248.0387133235661 388.3006286621094 247.31187438964844 C 387.9328301108228 247.27024126614134 382.4884146862154 246.89489669836772 381.99169921875 246.1497039794922 C 381.19594998769753 244.95588866293485 383.32676449580663 240.12072276472446 383.5903625488281 239.35386657714844 C 385.2716462328175 234.4626969294243 386.69113850902335 229.4277313868884 387.71673583984375 224.3556671142578 C 392.3866312986675 201.26082355155742 391.64292400624464 177.67499449197476 393.58917236328125 154.2838134765625 C 394.09556732144034 148.19765489933567 394.68518245800993 141.90732907049085 395.46209716796875 135.85690307617188 C 397.84713667871944 117.28278564944928 395.4784435242961 136.94160507688366 397.6595764160156 122.41075134277344 C 398.25282215335824 118.45850841872421 398.7661004111181 114.49035952748645 399.0941162109375 110.50732421875 C 399.64571923092655 103.80931056748223 399.1335327123997 97.06219313181182 399.98394775390625 90.39405059814453 C 400.74778757244303 84.4047482759859 402.8865661621094 78.64030297470362 402.8865661621094 72.5491714477539 C 402.8865661621094 71.35211389571413 403.4009880694203 75.1497591187054 404.4031982421875 75.80437469482422 C 404.75683741198543 76.03536188210877 405.8356214797763 75.84196512807056 406.2555847167969 75.90324401855469 C 411.0293156909949 76.59980245934564 407.7501793663541 77.14136262795702 409.08172607421875 79.88784790039062" style="stroke: rgb(0, 0, 0); fill: rgb(216, 216, 216);"/>
  <path d="M 51.072257563100365 261.1329864384923 C 43.35751426898135 302.7924778718397 20.45258338618994 341.31074762020313 19.443572998046875 384.5436096191406 C 19.2587687846393 392.46187800265596 19.15388530259935 400.66985755898986 19.809200286865234 408.57806396484375 C 19.980605210918664 410.6465433235337 19.702349774270306 416.058119577882 21.323945999145508 417.6963806152344 C 29.033656483720737 425.4853222163527 44.62588365244277 428.2808972450047 54.597957611083984 429.9486389160156 C 67.79135962061706 432.1551193738376 80.41333718822632 433.48591314129214 93.8152847290039 433.5694885253906 C 111.2951205832368 433.6784938763705 127.94866356002937 431.2514637915815 142.29457092285156 420.79302978515625 C 189.27074310015024 386.54652420238926 163.34061532130534 314.25150040669865 123.0151596069336 286.4956359863281 C 105.35065414565265 274.3372211599962 84.43109483601326 265.5228839592194 63.62672805786133 260.289794921875 C 56.81102662841831 258.57538694144625 49.88600039806539 256.8509332397512 42.841896057128906 256.49920654296875 C 42.60889795293326 256.48757246579174 30.608245316818017 257.27975757873776 33.559425354003906 258.243408203125" style="stroke: rgb(0, 0, 0); fill: rgb(216, 216, 216);"/>
  <path d="M 212.2619584730418 299.9492453095929 C 205.4772120709295 317.2476021342095 198.42109989788992 334.4915159566242 193.4880828857422 352.4429626464844 C 189.19981364296714 368.0481463533063 185.82277551177083 383.7882948878138 183.05276489257812 399.7209167480469 C 181.06007340755343 411.1825334274291 180.43098466422526 414.62572983875765 179.1147918701172 424.7179260253906 C 178.6984387027164 427.9104050202192 178.3064011035691 431.1061414391896 177.9376983642578 434.3044738769531 C 177.7523344583391 435.9124233980165 177.57373763703995 437.52192093523684 177.4526824951172 439.135986328125 C 177.31436792769904 440.9801769428814 177.24049076045497 442.82875187226233 177.15980529785156 444.6763610839844 C 176.76492466141949 453.7186975577649 179.0135134266872 451.0459907779318 188.1398468017578 449.33624267578125 C 189.67656944821564 449.0483495515294 191.2196909116209 448.7895727728431 192.76988220214844 448.5863342285156 C 196.2101679793909 448.13529397450975 199.6558003926718 447.72013334156026 203.1082000732422 447.3738098144531 C 208.72887882637852 446.80997785099964 221.5882879005741 446.02082064337947 225.97486877441406 445.8236083984375 C 240.04889667999052 445.19086715452534 254.1400752512069 445.1522978615881 268.201171875 446.0418701171875 C 288.7224732700931 447.3401458390809 308.7450191005994 451.44297872256567 329.1248779296875 453.7499084472656 C 332.86007242049976 454.1727195800931 345.65324435039383 456.8740078468718 348.9638977050781 453.5633544921875 C 350.4353256380806 452.091926559185 347.21571142385113 446.5520999270566 346.882080078125 445.2994079589844 C 344.7641426362479 437.3471479081656 344.31537638975846 429.2347242713551 342.8396301269531 421.1810302734375 C 342.60373502753265 419.8936633362993 342.0188135878309 413.8953827863875 340.1571350097656 413.27899169921875 C 339.32764646143386 413.0043528039098 332.62540818804155 416.06751257010797 332.3949890136719 416.1349792480469 C 325.9634259861018 418.01813933058776 320.1057269314642 419.0898624721783 313.3599548339844 419.8024597167969 C 291.3581898952646 422.1266409736665 268.3754770321335 419.88173072195394 246.524658203125 416.89794921875 C 244.33821427072832 416.5993850773176 231.24878532950868 415.8883626084406 229.912841796875 413.0495300292969 C 228.65175108996158 410.3697570474377 229.86716451127094 404.9422714201396 229.89418029785156 402.22247314453125 C 229.94818860976417 396.78521840571244 229.09155850619473 391.39516119594117 229.21142578125 385.9706726074219 C 229.46412468715755 374.5350048591157 231.32443512880346 375.53034040419544 241.5924072265625 375.7741394042969 C 246.18574814492857 375.88320202273417 250.7946699242548 375.77854465632953 255.3855438232422 375.6361083984375 C 272.868625498372 375.09367905164675 290.6856457129296 374.37869846788425 308.183349609375 375.0074462890625 C 314.30538035201295 375.2274302088614 320.350668612636 376.08681805323005 326.5151062011719 376.1453552246094 C 327.3822613017912 376.1535896833103 332.3008166236394 376.8117262999096 332.7587585449219 375.7181701660156 C 333.92952777078165 372.92239670913773 333.38036696283666 368.86121494212017 333.230712890625 365.9749450683594 C 333.11969151450273 363.8337560682233 332.9340707418184 361.681517549495 332.654296875 359.5559387207031 C 331.1742922082619 348.31161979304056 326.41356204854 351.6889810233332 316.9192199707031 353.3066711425781 C 313.40283445458056 353.90580924590876 309.93305458179697 354.14243861590273 306.35333251953125 354.3587951660156 C 301.82943013403144 354.63221748656156 296.65361029458023 354.6379798547593 292.19830322265625 354.6665954589844 C 280.56560393621095 354.74131011130265 268.64898382723413 355.1606294102714 257.76959228515625 350.6222839355469 C 255.8980090805208 349.8415517471266 250.78998546332878 349.3462368421374 249.69032287597656 347.5293884277344 C 247.8786526308868 344.5361700987033 248.880369741705 333.95901557749136 249.2482147216797 330.436279296875 C 250.9983614640374 313.67567153724065 267.1262750452869 315.9084538890865 279.43304443359375 317.58892822265625 C 298.4630506838374 320.18745234073975 317.879854273593 322.1837168638174 337.10711669921875 322.0193786621094 C 341.34362039104286 321.98316865036503 354.50160218150353 323.29282873097185 357.7651062011719 319.4730224609375 C 364.5138764358132 311.57384577785695 346.36442175567225 304.36920212576103 341.9423522949219 302.5216979980469 C 340.54004909223903 301.9358272924285 339.1078178649454 301.42394391059094 337.6816711425781 300.8987731933594 C 334.1287872086808 299.5904431495136 333.3855423840724 299.3269892307896 329.85797119140625 298.34869384765625 C 326.75956326264543 297.48941759036273 323.6619250066164 296.6243927043915 320.54193115234375 295.8471374511719 C 308.33342174673476 292.80574425852325 295.09202916502113 289.48864167685474 282.3804626464844 290.4727783203125 C 271.24729522025814 291.3347144165381 260.6771269164409 295.4264697574753 249.5019073486328 296.1530456542969 C 241.15232515245557 296.6959079341351 232.82826920548584 293.8905366942558 224.54034423828125 294.8024597167969 C 218.5559761333746 295.46092164445906 215.50152628391186 301.2513427734375 209.872314453125 301.2513427734375" style="stroke: rgb(0, 0, 0); fill: rgb(216, 216, 216);"/>
  <path d="M 381.4749547215359 314.47736065408213 C 375.43958606580605 335.4452538782123 370.10020382428974 355.4597104645735 367.5120849609375 377.29449462890625 C 365.976402324783 390.2503520202147 364.842552160377 403.3371999506046 363.9192199707031 416.3495178222656 C 363.7280974478034 419.04296558485606 363.5640548252752 421.7383583123302 363.4136657714844 424.43438720703125 C 363.24941207919 427.37896787513563 363.0876350276317 430.3239776068778 362.9753112792969 433.27099609375 C 362.6192865495795 442.6119544913757 362.8521728515625 452.0914646922795 362.8521728515625 461.441162109375 C 362.8521728515625 464.5344307660218 362.2737780787693 475.5294501129234 363.6916198730469 466.1439514160156 C 363.9091600004088 464.7039299763029 364.095416255978 463.259344932615 364.2904357910156 461.81610107421875 C 364.4989826149689 460.2727483900861 364.7239596057369 458.73133669744715 364.9023132324219 457.1842041015625 C 365.25316115422555 454.1407658148846 365.5967739209371 451.09601499987815 365.8779296875 448.04534912109375 C 366.1583357928209 445.0028174022437 366.43137892446873 441.9579938348293 366.5868225097656 438.9065246582031 C 366.85243519881516 433.6923568814671 366.99690563964265 428.4724842810357 367.1408386230469 423.2535400390625 C 367.46730912609996 411.4158687021311 367.3763796756647 405.21899546053737 367.8851623535156 393.9100341796875 C 368.49109958206975 380.44157120982214 369.5422495640656 367.0894855606898 371.4500427246094 353.7394714355469 C 372.37354812178063 347.2771303642705 373.58763680916707 340.887835118601 374.464599609375 334.41900634765625 C 375.23948813017427 328.70311833458163 372.53698403966 308.2204725241821 380.3482360839844 304.7303771972656 C 384.1984821316005 303.01007350433497 390.12392426596904 303.2123105428347 394.1506652832031 302.8929138183594 C 398.14085310471665 302.5764164536721 402.1166225433724 302.2118298848077 406.10821533203125 301.91357421875 C 411.8446558980476 301.484941842552 417.579716572641 301.0288709805931 423.3169860839844 300.6114807128906 C 437.2391151585894 299.59863633283334 464.99632422656435 295.95583036864747 475.5775146484375 308.8735656738281 C 478.9459397047338 312.9858083930052 477.95865312220667 319.77814258774174 477.8925476074219 324.67578125 C 477.64474436739016 343.03507748971083 463.3963117961846 366.1738922908524 444.439453125 370.40911865234375 C 437.1209535541108 372.04417342839207 416.52285035309455 370.653147159156 415.3944091796875 381.88720703125 C 414.19665190085306 393.8113350228194 425.2139692271745 408.73403766101 430.26763916015625 418.84735107421875 C 435.7138925395953 429.7462954224731 441.6408772822246 440.3035292932789 447.9110412597656 450.74652099609375 C 449.7772281776178 453.85466530760425 451.53894631585536 457.04491826013816 453.67156982421875 459.9730529785156 C 454.63519471562313 461.2961292219071 456.3391418457031 465.732469380745 456.3391418457031 464.0956726074219 C 456.3391418457031 462.4592980719216 453.08448333774595 464.4615728630256 451.4497985839844 464.5359191894531 C 448.72044632389265 464.6600515725304 446.6110774197549 464.8168745424362 443.904052734375 464.79150390625 C 435.3795879833683 464.7116113603682 426.85345869151433 464.6571960449219 418.3343505859375 464.6571960449219 C 417.0138043566459 464.6571960449219 418.3322516971953 462.0136954576275 418.2336120605469 460.69683837890625 C 418.01412175070084 457.7666028462922 417.5047622538847 453.8890362568907 417.1106262207031 451.1065673828125 C 416.0593757974828 443.68509018911266 414.14368700692086 436.14538268550103 411.6523132324219 429.06256103515625 C 410.5929931860331 426.0509796193105 409.1981150669158 423.11362043031824 407.9214172363281 420.18487548828125 C 407.4452460440096 419.0925387288425 407.1717597918573 416.18008543533546 406.3040771484375 416.996826171875 C 404.1830015653925 418.9933727745872 403.20451635462774 427.55076355738714 402.4500732421875 430.3385314941406 C 400.3335058089427 438.1595304920525 398.95357344340914 445.4792610054742 398.8367004394531 453.55401611328125 C 398.7980172593341 456.22663678426113 398.91131591796875 458.8946417240828 398.91131591796875 461.56427001953125 C 398.91131591796875 462.80540974934894 400.15192174637076 465.3240898609962 398.91131591796875 465.2876892089844 C 393.67925091258047 465.1341750361471 388.6406431812834 465.07611273531063 383.4429931640625 466.0711975097656 C 379.5542709979034 466.8156893872121 376.8996101492541 465.19187698843496 373.1550598144531 464.9948425292969 C 370.76103517448547 464.8688713690977 367.79279028427874 464.75350870928 365.5682678222656 465.68505859375 C 364.1779970099139 466.26725393533184 363.79295134151613 469.00220815573266 362.02764892578125 468.287353515625" style="stroke: rgb(0, 0, 0); fill: rgb(216, 216, 216);"/>
  <path d="M 426.5479289066346 329.2461188952636 C 425.8753822424333 334.91939759577 423.4999818721006 344.8286586133889 425.796142578125 350.5682067871094 C 426.1890212144552 351.5502573263971 432.49005560404146 352.23118919275845 433.297119140625 352.5381164550781 C 437.36777896405715 354.08619342647705 443.9595719728522 357.1067701805311 448.5322570800781 355.97613525390625 C 450.1039077120604 355.58753139090174 450.9613833185557 352.38654866526963 451.405029296875 351.2173767089844 C 453.7989897543961 344.9084016068256 453.3138475413777 337.7265189015494 447.39617919921875 333.568359375 C 444.55255994487123 331.57023751201797 440.7718517050817 330.50216814798125 437.4496154785156 329.69195556640625 C 433.5966762476658 328.7523174347418 429.3093458110767 328.3481805919818 425.3465881347656 328.7666931152344 C 423.9402933457967 328.9152139253981 421.96701373785845 331.4939880371094 421.73321533203125 331.4939880371094" style="stroke: rgb(0, 0, 0); fill: rgb(216, 216, 216);"/>
  <path d="M 68.8854282647603 308.3400340640244 C 68.36740321630438 316.80957853997546 64.01896551981231 325.4408890677227 62.203392028808594 333.71759033203125 C 59.00458036974857 348.30009477705386 57.20823444390168 362.8873823208962 56.116432189941406 377.7664489746094 C 55.44489935283625 386.9180895827888 55.01768112182617 396.08594944853894 55.01768112182617 405.2631530761719 C 55.01768112182617 408.527033116795 53.77465528283631 411.8715306454853 53.50480270385742 415.1407165527344 C 53.41024082383524 416.28630636588827 53.36116409301758 419.73566759928445 53.36116409301758 418.586181640625 C 53.36116409301758 406.0944414584561 72.60317105137825 404.41228849758835 80.55567932128906 404.2110595703125 C 94.1390131454759 403.8673491834132 110.81759527730094 406.2141356958971 115.09632873535156 389.8657531738281 C 115.83241999743694 387.0532616639674 116.29241034145741 382.1545441592542 116.4804916381836 379.91729736328125 C 118.2891239161596 358.4034262903599 97.38140284927807 340.87428448761807 83.58143615722656 326.70538330078125 C 79.6226240574797 322.64073454399295 74.7544070708667 319.527385271139 69.60735321044922 317.2027893066406 C 64.98977378879816 315.11732317778024 58.190901838690735 314.7052058824123 64.36917877197266 309.9237976074219" style="stroke: rgb(0, 0, 0); fill: rgb(216, 216, 216);"/>
  <path d="M 46.80037978461034 103.8793825209587 C 39.71232419393463 121.53707150531369 38.706136649832736 140.68260622066435 36.76426696777344 159.42684936523438 C 36.354980345504586 163.37756142099465 33.726463592254916 174.34050415588302 36.25872802734375 178.13917541503906 C 36.737725940018855 178.85772422805465 42.099428892344996 179.52886773955495 42.407249450683594 179.5979461669922 C 47.85409238674431 180.82027955028386 53.329501076344805 181.90083156474213 58.79335021972656 183.0490264892578 C 67.47552130237659 184.87353234754102 82.12590396192371 189.3094088498948 90.66641235351562 184.89768981933594 C 95.68647882471302 182.30450428866476 98.77045920047857 177.05233541790795 102.14078521728516 172.76107788085938 C 104.88966734715176 169.26107191721522 108.00262365782943 166.06618469773147 108.1978988647461 161.35012817382812 C 108.52257365328654 153.50896554586268 103.36971974538504 146.69291871024657 98.98444366455078 140.70147705078125 C 91.20602695342319 130.07411196163383 81.7894868744289 119.45094933142812 69.21934509277344 114.49565124511719 C 62.52438180850783 111.8564177880325 55.01344420472253 110.46301662851167 48.565093994140625 107.53192901611328 C 47.940159282938055 107.24786590993185 42.504249572753906 105.64466598486763 42.504249572753906 105.43143463134766" style="stroke: rgb(0, 0, 0); fill: rgb(216, 216, 216);"/>
</svg>