<?xml version="1.0" encoding="UTF-8"?>
<svg id="Layer_1" data-name="Layer 1" xmlns="http://www.w3.org/2000/svg" viewBox="0 0 64 64">
  <defs>
    <style>
      .cls-1 {
        fill: #9e9e9e;
      }
    </style>
  </defs>
  <path class="cls-1" d="M50.55,41.25l-17.87-13.93c-.3-.23,0-.69.33-.5l6.98,3.91c3.16,1.77,7.16.75,9.08-2.33,2.02-3.25.95-7.52-2.37-9.44l-10.24-5.92c-.32-.19-.08-.68.27-.54l4.71,1.88s.12.04.16.06c.5.17,1.04.27,1.6.27,2.55,0,4.65-2.02,4.83-4.42.23-3.11-2.15-5.28-4.99-5.28h-21.75c-2.79,0-5.14,2.28-5.1,5.07.02,1.48.68,2.8,1.72,3.71.78.68,3.42,2.79,4.68,3.79.22.18.1.54-.19.54h-4.36c-4.58.03-8.28,3.75-8.28,8.33,0,2.32.95,4.41,2.47,5.92l25.21,23.96c1.78,1.66,4.18,2.68,6.81,2.68,5.52,0,10-4.48,10-10,0-3.13-1.44-5.92-3.69-7.75h0Z"/>
</svg>