<svg viewBox="0 0 160 160" xmlns="http://www.w3.org/2000/svg"><path d="m0 0h160v160h-160z" fill="#fff"/><path d="m44 56h72v96h-72z" fill="#fff"/><path d="m44 8h72v48h-72z" fill="#b3b3b3"/><path d="m44 68h63.11v8h-63.11z" fill="#6195bc"/><path d="m44 84h38.32v8h-38.32z" fill="#6195bc"/><g fill="#b3b3b3"><path d="m44 104h58.6v8h-58.6z"/><path d="m44 120h63.11v8h-63.11z"/><path d="m44 136h31.56v8h-31.56z"/></g><path d="m-35.62 56h72v96h-72z" fill="#fff"/><path d="m-35.62 8h72v48h-72z" fill="#b3b3b3"/><path d="m-35.62 68h63.11v8h-63.11z" fill="#6195bc"/><path d="m-35.62 84h38.32v8h-38.32z" fill="#6195bc"/><path d="m-35.62 104h58.6v8h-58.6z" fill="#b3b3b3"/><path d="m-35.62 120h63.11v8h-63.11z" fill="#b3b3b3"/><path d="m123.62 56h72v96h-72z" fill="#fff"/><path d="m123.62 8h72v48h-72z" fill="#b3b3b3"/><path d="m123.62 68h63.11v8h-63.11z" fill="#6195bc"/><path d="m123.62 84h38.32v8h-38.32z" fill="#6195bc"/><path d="m123.62 104h58.6v8h-58.6z" fill="#b3b3b3"/><path d="m123.62 120h63.11v8h-63.11z" fill="#b3b3b3"/><path d="m123.62 136h31.56v8h-31.56z" fill="#b3b3b3"/></svg>