<?xml version="1.0" encoding="utf-8"?>
<svg viewBox="0 0 500 500" xmlns="http://www.w3.org/2000/svg">
  <path d="M 53.252967223823006 57.11258081495656 C 52.495004797388944 98.60246929413975 47.14571890244943 139.91340103946607 46.483253479003906 181.42236328125 C 46.32065134777117 191.61073762789752 44.807126057391336 200.85895814746917 44.56743621826172 210.89645385742188 C 44.524871489869604 212.67893775487275 43.539530858235366 219.06091542902035 45.27444076538086 220.6005096435547 C 47.94861558817803 222.97362658114022 53.157352178453685 223.92491236628888 56.33095932006836 224.7660675048828 C 65.39224205734567 227.1677335576115 74.25417838127929 229.45920526926074 83.5553207397461 230.92018127441406 C 94.77066183386688 232.68182985440865 106.02484658958262 234.07796052881042 117.35165405273438 234.8656005859375 C 119.43919209275535 235.01076316475294 125.93422853062756 236.36765355523443 127.94554138183594 234.97193908691406 C 128.87930915095498 234.32396769617407 127.58364202429401 232.7064291085275 127.14712524414062 231.6570281982422 C 125.40657496435671 227.47268722660587 123.67929892424914 223.31932545471858 122.07496643066406 219.06898498535156 C 115.4688666275021 201.56751727193964 113.47361832407326 187.57419249578192 114.70271301269531 169.09361267089844 C 114.77710131941095 167.97511541188143 114.15230137482645 155.11897537621994 115.65409851074219 154.34536743164062 C 117.35541280326106 153.4689839165553 123.96187601699725 154.34536743164062 125.36189270019531 154.34536743164062 C 131.1596453258094 154.34536743164062 136.95388472405233 154.46363244330155 142.75160217285156 154.5001983642578 C 147.11321696795153 154.52770685587504 151.47602123672604 154.57481384277344 155.8377227783203 154.57481384277344 C 158.6881306966146 154.57481384277344 161.53863007862662 154.55197945105652 164.38894653320312 154.57481384277344 C 174.34479684841736 154.65457192914573 176.58339044064536 155.45726580131364 175.0667724609375 165.10714721679688 C 174.73386617026344 167.22535118803813 174.31333767118812 169.32920048291672 173.9829559326172 171.4477996826172 C 173.55217216271552 174.21023490105677 173.18142592534133 176.9816999618188 172.78346252441406 179.74905395507812 C 171.59972916784133 187.9804873573283 170.3546300474112 196.1934187163213 169.42938232421875 204.4587860107422 C 168.67466936476984 211.2007424137055 167.62176513671875 218.03150263867315 167.62176513671875 224.8350830078125 C 167.62176513671875 225.29188828857224 167.75309130262212 223.12220519835267 167.98739624023438 223.51434326171875 C 170.00550268857762 226.89189203377902 177.3829064476806 228.21257236237608 180.6108856201172 229.35133361816406 C 190.32501452536783 232.7782682543871 200.2988795078153 235.53843028441915 209.89283752441406 239.28111267089844 C 210.70277992640115 239.597077902009 220.62336325652214 244.19267217765855 221.61532592773438 243.1388702392578 C 223.42833774680864 241.21283468899955 221.5962774428523 233.34490086031042 221.5798797607422 231.1552276611328 C 221.49867819086495 220.31193285291727 223.14180353175217 210.23840863493427 225.56634521484375 199.6720428466797 C 233.2190835864775 166.32073629649256 227.81717770459642 133.37950355252235 229.02488708496094 99.59071350097656 C 229.5305524769241 85.44341776645213 237.4607633914549 68.58095710435617 228.9110870361328 56.06233215332031 C 228.1879227683488 55.00345906033556 224.3745861940981 44.69691512486725 223.8258819580078 44.658843994140625 C 214.6473159604325 44.022001114146605 204.27011713095416 46.744415283203125 194.92074584960938 46.744415283203125 C 187.38613134207597 46.744415283203125 179.84866734182359 46.67859176061356 172.3152313232422 46.54481506347656 C 169.54399474526767 46.495604201995526 166.78582283742898 46.43747739410382 164.01771545410156 46.319095611572266 C 164.01406643970878 46.31893955663347 159.2971092699988 46.39624944011227 159.3130645751953 46.42915725708008 C 160.45181556032276 48.777831163905425 159.0948028564453 55.237317154351025 159.0948028564453 57.81772232055664 C 159.0948028564453 67.41841621561743 158.58027452954306 77.06584034927766 159.11158752441406 86.6538314819336 C 159.28804384820995 89.83813467833252 161.06880993337086 96.18714563920341 159.77195739746094 99.31462860107422 C 158.79757561177996 101.6644427462394 161.451113836329 112.22591612687678 159.7327880859375 112.70481872558594 C 154.0775789235928 114.28094267267436 146.0619400674219 113.10192726964982 140.30227661132812 113.05552673339844 C 137.38437519095183 113.03201977128751 134.82944887248925 112.86327424867 131.94879150390625 112.79063415527344 C 128.9068378695174 112.71392673476592 128.3801339079985 112.725341796875 125.81146240234375 112.725341796875 C 113.67048096088563 112.725341796875 117.94155306976526 106.74448062437564 119.32716369628906 96.67501831054688 C 119.57875101093443 94.84669155340121 120.87852586745733 84.72860344685044 121.09374237060547 82.45843505859375 C 122.38138822802188 68.87595937472697 121.38848876953125 55.50686300912427 121.38848876953125 42.101314544677734 C 121.38848876953125 40.35872159087324 118.094860896745 43.244455224864566 116.42452239990234 43.74104309082031 C 111.74904662716087 45.131051487742376 107.09226367916239 45.96393990713605 102.30867767333984 46.90298080444336 C 89.68819777875382 49.380441594368705 77.38591594411841 51.02165184871985 64.47924041748047 51.11329650878906 C 60.58424654289106 51.140953157387045 56.674606379277485 51.161033982808036 52.78474044799805 50.930484771728516 C 51.19689729682859 50.83637459099544 46.95260899267314 51.55526150699133 48.04277038574219 50.39696502685547 C 48.07421009993378 50.36356033052691 49.242507071948395 56.24647861466153 49.25531005859375 56.916709899902344 C 49.276786580700225 58.04099733475254 49.156649260317856 70.97659301757812 49.02212905883789 70.97659301757812" style="stroke: rgb(0, 0, 0); fill: rgb(216, 216, 216);"/>
  <path d="M 271.4228020830997 67.07780836635119 C 260.34082482731276 111.9000814457321 260.8904724121094 157.69800584765557 260.8904724121094 203.5689697265625 C 260.8904724121094 208.08269455592264 263.514444113926 222.78951913796158 260.4837951660156 227.15756225585938 C 258.2405560034185 230.39071975921766 256.38323509986077 234.08597031335188 254.80165100097656 237.6954803466797 C 254.43185870037746 238.53942473142757 253.0569638727011 239.58282752016203 253.70849609375 240.23435974121094 C 254.21644457989885 240.74230822735979 260.05292608633897 240.3522550734847 260.6125183105469 240.40785217285156 C 268.3666101899943 241.1782435365476 276.06029556819044 242.41316501007793 283.7347717285156 243.7283477783203 C 311.8715755484393 248.55018040432876 343.12091776231375 251.10071446545962 371.7783508300781 251.5669708251953 C 378.96107109663825 251.68383366481416 389.88367437227316 254.70742327769685 396.71380615234375 252.94740295410156 C 397.1214633916273 252.84235592875817 397.0521153445115 242.17334967191263 397.0570373535156 241.79200744628906 C 397.17171829280534 232.9068785103716 397.0229430217596 224.02250401827544 397.1913757324219 215.13661193847656 C 397.20070293550657 214.64454291167735 398.05751430671575 208.64001381083304 397.3797607421875 207.96209716796875 C 396.1723119719812 206.754357866297 393.96663533629203 208.16120454330766 392.2591247558594 208.12998962402344 C 386.72133353765105 208.0287535275271 381.20535482558483 207.87133362812077 375.6752624511719 207.52931213378906 C 353.27888337036507 206.1441556983778 330.77932074749253 204.20546593670682 308.34564208984375 203.67156982421875 C 301.1032903154712 203.4992100647421 293.8514424339548 203.5913543701172 286.6075439453125 203.5913543701172 C 285.80076349851475 203.5913543701172 279.85297277688943 204.30711897241594 279.30804443359375 203.5913543701172 C 278.57214037713265 202.6247427398297 280.95397400831047 196.25641229628812 281.1455078125 195.50836181640625 C 282.78341683066503 189.11137809739262 284.24875679777614 182.5660746893126 285.2550964355469 176.0442657470703 C 285.4350014005619 174.87835141203755 285.53034274533576 169.15848447020255 286.8575134277344 168.3492889404297 C 287.6600836940899 167.85995001780537 291.102008574903 168.81409134291687 291.638671875 168.8921356201172 C 297.92974256991056 169.80701477267277 304.179507045149 170.6260878809374 310.51513671875 171.17544555664062 C 336.2470158604129 173.40663741048928 361.7390084137943 173.5535463916877 387.5208740234375 172.39732360839844 C 395.9292511553066 172.0202385146526 404.30793871191753 172.1734619140625 412.7212219238281 172.1734619140625 C 413.23005471973744 172.1734619140625 418.06157615204006 172.64127989775716 418.1235656738281 171.84701538085938 C 418.4397053209785 167.79635493255532 416.1968942679356 163.27912089710378 414.96722412109375 159.5518341064453 C 413.96891377786886 156.52582833990988 412.91292187192425 153.52452395711254 411.36505126953125 150.7245330810547 C 403.7817435686073 137.0068538770567 396.14653865135404 140.42163750294333 382.6632385253906 141.01673889160156 C 373.83931563562 141.4061931584397 364.9849278732157 141.25924682617188 356.15521240234375 141.25924682617188 C 345.51542419325347 141.25924682617188 334.8654082633828 141.39388919085522 324.2280578613281 141.08763122558594 C 314.41876187968313 140.80521362021287 304.7660573901188 140.29246538755893 295.0673522949219 138.74835205078125 C 292.68615201443697 138.36924545102946 288.3716720402428 138.26285473059542 288.2304992675781 134.87380981445312 C 287.86313751119 126.05478990450648 301.50644355201786 117.92961117786228 307.4613952636719 113.77558898925781 C 310.7627192149971 111.47266973657298 315.59182074217597 109.91505814112008 318.525390625 107.27822875976562 C 321.55302680346335 104.55684820627472 322.9633721459269 98.83647597714784 327.58026123046875 98.14685821533203 C 336.83582303752127 96.76436890253953 349.2090338817092 103.69035356521427 357.6531677246094 106.03584289550781 C 373.6203232846003 110.47096835631334 389.7302289239903 114.08850321791638 406.34698486328125 114.32962799072266 C 413.1444296849034 114.4282653146543 423.7847205216642 115.14148234258636 429.8553771972656 111.24977111816406 C 432.9775870505571 109.24821843937539 437.34139250597923 100.81896262077868 439.4288635253906 97.59095764160156 C 439.60641873383685 97.31639138817167 441.6287814227456 93.19676551322681 440.9491882324219 93.00008392333984 C 433.6970224216564 90.90122901706009 425.10183229009783 90.25997782354075 417.5378112792969 88.94273376464844 C 388.70940997866416 83.92238277852647 359.44937495136605 80.6287917497958 330.2460021972656 78.63799285888672 C 315.92800646885155 77.66193265323238 301.6937899794457 79.30030694943255 287.2772521972656 77.2631607055664 C 286.18249420982914 77.10846460892068 274.9468172361839 74.46950236443197 275.1331787109375 73.80648040771484" style="stroke: rgb(0, 0, 0); fill: rgb(216, 216, 216);"/>
  <path d="M 42.8008575326092 348.52366691400414 C 46.20911441091759 339.49982512485434 47.44445159549252 330.28504164392876 50.354061126708984 320.8273620605469 C 54.04675094843125 308.8242816609362 59.868233450388324 297.6924705260125 65.91749572753906 286.7474670410156 C 72.78970519115771 274.3134952469604 81.99086680731523 259.6147316384095 95.14907836914062 252.622802734375 C 100.79482293809285 249.62280197811899 111.88485472811682 250.32830810546875 118.18364715576172 250.32830810546875 C 121.64062258268923 250.32830810546875 131.9068550737843 248.38119380290863 135.66476440429688 250.2033233642578 C 136.74983983354164 250.72945314601358 136.21588064206523 252.5517755154599 136.53033447265625 253.71595764160156 C 137.76865002818968 258.3004934176982 139.38508931659103 262.5453085024648 141.0932159423828 266.99981689453125 C 145.35626436639245 278.11713378064553 151.5408429707913 288.5029990293056 157.9251708984375 298.531494140625 C 168.18787515913522 314.65213842358065 180.81010852286263 327.06956246915666 193.25489807128906 341.2036437988281 C 196.39514375324526 344.77015552578064 198.23219186729526 348.8331621159302 200.56373596191406 352.91119384765625 C 200.98035288270142 353.6398856304392 203.77547146804582 356.6821265789557 203.55030822753906 357.5431213378906 C 202.59548666319526 361.19423401848536 193.37187458145374 360.26774667775624 191.21969604492188 360.2983703613281 C 181.4927985200582 360.4367759010552 171.83338136321225 359.9036782730103 162.12615966796875 359.4533386230469 C 160.4218660703898 359.3742726445141 154.6283343365228 360.20934116879516 153.0992431640625 359.1697692871094 C 152.04469430508436 358.45282097074863 152.76887439883163 356.6313674449038 152.41836547851562 355.4053039550781 C 151.31601973551372 351.54935110959605 149.71335466848276 348.78347083810155 147.63162231445312 345.3057556152344 C 140.63198788353017 333.61225660811874 134.85354497780486 321.07524679945516 125.14550018310547 311.3695373535156 C 124.43145933034162 310.65566826905894 123.85351976480287 312.93097768738386 123.10282897949219 313.606201171875 C 121.2261897569118 315.29418096302044 119.33961092419436 316.95316307111347 117.51394653320312 318.6988830566406 C 108.67121161499752 327.15440157888617 101.65140878221838 337.64243414341104 92.86204528808594 345.915771484375 C 86.70967493720593 351.70693433631016 71.3865188228857 350.4246934783179 63.746116638183594 350.0682678222656 C 56.206978129506936 349.71656612855054 52.354495611189044 351.38006829014284 58.099403381347656 345.624755859375" style="stroke: rgb(0, 0, 0); fill: rgb(216, 216, 216);"/>
  <path d="M 106.35483309390901 292.7336893064491 C 109.07854134546355 287.75172028501487 112.83573052698065 280.5274389554435 117.15205383300781 276.6497802734375 C 117.94759239488504 275.935091684882 120.32978255049045 273.20616120933903 121.65524291992188 273.6389465332031 C 123.32702256445734 274.18481098270007 122.240315417887 277.11071490699936 122.6644515991211 278.81744384765625 C 123.81255426543237 283.43742236902966 124.95885532794605 287.51099086804203 125.04476165771484 292.2654724121094 C 125.04742038419815 292.4126194969584 125.28642328917225 295.8189671060586 125.0876693725586 295.882568359375 C 121.88615548855265 296.9070528022569 114.87087030160814 292.75421142578125 110.99234008789062 292.75421142578125" style="stroke: rgb(0, 0, 0); fill: rgb(216, 216, 216);"/>
  <path d="M 246.87163027405725 273.9821978525706 C 241.19889262025214 297.53702021197086 232.3071510313541 319.39287764587897 229.50616455078125 343.7331848144531 C 228.85481337620735 349.39336481664213 225.9057870075268 360.35287997769166 227.78062438964844 366.0943298339844 C 228.13790192681313 367.18844662724433 236.30717294038433 369.32596550334387 236.3859405517578 369.3476867675781 C 243.1942331385352 371.22516812930706 250.26079087128875 372.19542231621733 257.204345703125 373.4068908691406 C 287.3921038177896 378.6738644186963 320.15435066049844 384.9396993922839 350.6763916015625 378.42120361328125 C 358.03557108115666 376.84952692012416 372.3747050259538 374.62483763106894 376.81134033203125 367.2900695800781 C 383.64833866831293 355.9869550570201 378.6295534293445 338.3774897501496 372.1868896484375 328.4962158203125 C 356.7742245066472 304.8574273573454 327.3819696564716 292.2853365556102 300.4715576171875 287.2846984863281 C 286.4410968438581 284.6774825072395 272.2538217699913 282.2113089140366 257.94866943359375 282.065185546875 C 256.20210738340205 282.0473448750856 236.4526365345318 282.79825087956925 238.15811157226562 281.07275390625" style="stroke: rgb(0, 0, 0); fill: rgb(216, 216, 216);"/>
  <path d="M 275.6443127436774 318.63917695268964 C 275.4739174909543 326.96236394699076 275.7281235194344 336.23514071317277 282.2181396484375 342.49639892578125 C 286.87283076025597 346.9870230431524 292.24120665705334 346.13860321801985 297.8170471191406 347.7215270996094 C 306.07222295440926 350.06508679526746 313.72122927073104 353.6142416636429 322.21337890625 355.3120422363281 C 326.61498876046767 356.1920380032387 341.6822460590539 360.47034662151384 345.52777099609375 355.8418273925781 C 352.96720482585323 346.88763697717485 335.8659842076453 336.5369756849861 330.2646484375 333.1523742675781 C 321.85402756452334 328.0702651964379 311.3318805645811 322.11744421794367 301.4639892578125 320.6557312011719 C 296.820526512565 319.9679034042678 293.2100760399316 322.32539670152505 288.163330078125 321.6388244628906 C 282.88129686148795 320.92024314385196 276.46357087440225 317.4378356933594 271.15789794921875 317.4378356933594" style="stroke: rgb(0, 0, 0); fill: rgb(216, 216, 216);"/>
  <path d="M 42.767279454000985 384.2003754352363 C 41.42194580223147 397.74816004339516 39.87633020711114 411.2762387567013 38.461822509765625 424.8168029785156 C 37.498090413389505 434.0422574374016 36.936168400530036 443.2488605974383 36.87805938720703 452.52618408203125 C 36.84051040250798 458.5210213310267 36.995901587559366 461.37044870285274 37.465675354003906 467.55609130859375 C 37.58824349764383 469.1699803453184 37.81359857540092 470.77472609526745 37.94882583618164 472.3876037597656 C 38.061119132759245 473.7269442808797 38.11798782420362 475.0703629335769 38.20812225341797 476.411376953125 C 38.78797603178874 485.03840275071383 40.11940942902369 479.3004953451953 48.37668228149414 479.5583801269531 C 50.184299577579296 479.61483423719403 51.98539144788741 479.8032431933905 53.790218353271484 479.9184265136719 C 57.2857641630029 480.1415108279401 60.78706756484686 480.28405025761856 64.27777099609375 480.57318115234375 C 93.26749732832867 482.9743663797246 58.583119775397954 480.60290236591226 86.64263916015625 482.587890625 C 102.74557364169976 483.72704541394785 118.71855278527715 484.2746682541732 134.85888671875 484.5223388671875 C 156.52583430284577 484.8548144040891 180.73004901228003 487.84419727440485 202.37693786621094 484.7779235839844 C 204.03438638695198 484.54314662242336 199.59083700488654 482.9154467259236 198.2748260498047 481.880859375 C 195.9179947092257 480.02802685578166 194.0103427748899 477.3811079256168 191.9789276123047 475.18951416015625 C 187.75697703291766 470.63465962412334 182.60757624293706 467.12869046869395 178.27162170410156 462.6947326660156 C 176.8282246806996 461.2187113108668 174.13375754172557 454.7625148989977 172.5745391845703 453.98309326171875 C 172.0883198063104 453.74004205459244 168.1681170567075 456.22823695337627 167.75234985351562 456.38763427734375 C 162.04819550279475 458.57449974441823 156.4776357821333 459.65514684903087 150.45590209960938 460.5886535644531 C 142.62700760696794 461.8023116185154 143.325712762009 461.8199405610001 134.97828674316406 462.8271789550781 C 130.2056593787016 463.4030658825287 123.96924502687911 463.9561327122669 119.3197021484375 464.235595703125 C 108.05519453880588 464.9126543020957 98.86181479627963 462.46554206905967 88.05850982666016 460.8013000488281 C 87.1837421833077 460.6665426691096 79.61726699026791 460.2867864287342 79.5352783203125 459.124267578125 C 78.98394194832096 451.3068590774712 78.62731134269481 429.0750177263269 92.28002166748047 431.2843017578125 C 98.16272616549585 432.23624205393224 104.33819406887095 436.33169433149453 110.3077163696289 437.8301696777344 C 120.99685181449055 440.5133669470887 131.75823499748984 442.01760251787005 142.76092529296875 442.62811279296875 C 152.20340481452993 443.15205108583257 163.04663878132473 444.3413407578098 171.88058471679688 440.0780334472656 C 174.32539846175078 438.8981538795259 184.54992164024924 436.3023613343426 183.65902709960938 432.3942565917969 C 182.7195984919507 428.273246495319 168.4272627058316 429.24613472558826 165.92420959472656 429.1334533691406 C 145.46584252632104 428.21246749722934 125.0533581183888 428.74911998842515 104.59757995605469 427.4097595214844 C 99.74491023634071 427.09202660855743 94.52506956980751 427.411056856561 89.71875762939453 426.7550048828125 C 89.1007345714745 426.67064597061596 83.18214771067983 423.9309524177818 84.53654479980469 422.44207763671875 C 88.52579133785221 418.05673997346383 96.7493564682313 414.84544140530886 101.89081573486328 412.3667907714844 C 113.3489410939788 406.8429330083524 127.16188426616256 401.0303790989668 140.22018432617188 401.3102722167969 C 147.4809151932382 401.4658995642134 154.69498620003762 404.2704773723415 162.18399047851562 404.3882751464844 C 173.05390817470456 404.559252764084 183.94441364530414 404.447196640237 194.5737762451172 401.9072265625 C 196.62560566430312 401.41692573021453 203.67800899316222 400.0948727986541 203.56336975097656 396.8518371582031 C 203.44278229326034 393.4405321311532 197.38839152735193 391.74197989928734 194.9860382080078 390.71826171875 C 185.151320657113 386.52737977135615 174.87944253299204 383.7124274781713 164.47476196289062 381.30706787109375 C 149.41654791124026 377.82590191020404 133.15143119814948 374.6404711350041 117.60162353515625 374.339599609375 C 103.5513626858634 374.06774265083055 89.25315659406917 376.14349365234375 75.01155853271484 376.14349365234375 C 67.59499762256713 376.14349365234375 60.176858113882695 376.2386474609375 52.76235580444336 376.2386474609375 C 50.24092146596828 376.2386474609375 45.20852666575343 376.581305906284 43.7970085144043 379.23828125 C 42.17167206598972 382.29773809407453 42.55088806152344 386.6787328544734 42.55088806152344 389.6418762207031" style="stroke: rgb(0, 0, 0); fill: rgb(216, 216, 216);"/>
  <path d="M 252.2329301585028 388.0226800501385 C 252.19837878844 395.5711752844871 251.25794509899566 403.10242283603196 250.99427795410156 410.654296875 C 250.56554285713642 422.93399690992885 250.66221618652344 435.21986672957524 250.66221618652344 447.50439453125 C 250.66221618652344 450.09172489772055 251.96411434585468 457.2952556165568 250.65103149414062 459.8443298339844 C 248.31241249415254 464.38426681471196 250.25722667484035 475.5000449121138 250.35069274902344 480.3399963378906 C 250.3588106308991 480.7603644158461 249.82818059115925 487.60203007846394 250.5148468017578 488.2886962890625 C 252.2870508638903 490.060900351195 264.65967874795706 490.0871756356797 267.1733093261719 490.5179138183594 C 273.28601701114525 491.56539335743605 279.1582750763251 493.2891458408756 285.21966552734375 494.5248718261719 C 285.4311157523391 494.5679798456494 289.08615432459965 495.43407138739485 289.30499267578125 494.9688720703125 C 290.6968043462261 492.01020493037913 288.1088972329701 484.2303964758657 288.05328369140625 480.9350891113281 C 287.8869162622437 471.0772055973036 290.0045471191406 461.07706825941995 290.0045471191406 451.212890625 C 290.0045471191406 449.8999177411429 291.7275122483467 453.19771776002284 292.6590576171875 454.12298583984375 C 293.88933410284824 455.34497201422903 295.10517783829397 456.5850464655996 296.4067687988281 457.73077392578125 C 300.7809410452976 461.5811458247132 305.5118176653115 465.31237259891714 310.3808288574219 468.5317077636719 C 314.86366541071686 471.4957086222559 319.49663349403824 474.12903642265894 324.1683654785156 476.76953125 C 326.85643561474114 478.28884685154077 329.4955119832841 479.88301713935124 332.1897888183594 481.3921203613281 C 343.7899097009517 487.8895149762183 344.14622231790224 485.9673974807372 357.1886901855469 485.6789245605469 C 360.6729069631789 485.6018607564709 364.1632515423311 485.5816541874923 367.64825439453125 485.62109375 C 372.2022710674458 485.6726312760365 376.57381127685915 486.78250905893515 381.0104675292969 487.66937255859375 C 381.24332409353013 487.71591932167934 385.1296603464129 488.7954121817536 385.4371643066406 488.3148193359375 C 387.2546045123421 485.4743721432845 384.4015557866182 475.63646984192997 384.0436706542969 472.5629577636719 C 383.82524887139215 470.6871548110372 383.40234646630256 466.79714452614974 382.8982849121094 464.81573486328125 C 379.52779702846107 451.5667234961442 373.013387995116 454.4799744779393 360.958740234375 451.9198913574219 C 353.836357138713 450.40728865820023 346.9372873300439 448.1964373955917 339.9910888671875 446.0400085449219 C 332.7277867375689 443.7851357037275 325.90614137838725 440.5360681627977 320.48223876953125 435.1177978515625 C 319.9181985754717 434.55434336902323 316.5854609538657 432.08549477817826 316.5592041015625 431.1910400390625 C 316.541563613985 430.5901067081435 317.76022010421894 431.25112072662284 318.3612365722656 431.2656555175781 C 322.56998299300915 431.3674385013424 319.7505627278135 431.23956449550514 324.0956115722656 431.4950866699219 C 330.6434167695121 431.88014780077515 337.17975681972973 432.25346765069634 343.7257385253906 432.69085693359375 C 360.10867738417994 433.7855318351446 376.6879032416731 434.7482915091547 393.1153564453125 433.96868896484375 C 400.75309410957897 433.60622257142114 409.7444741384304 429.83229381534085 401.3793029785156 421.6231384277344 C 394.85822333160826 415.2236810713871 385.2418422136195 411.9455191089677 376.8896789550781 408.7347717285156 C 365.51317626958047 404.3614046060743 353.045907345238 399.2810505543725 340.7764587402344 398.1091613769531 C 326.0199580194268 396.69972693144405 310.54777462534133 398.3147678919148 295.7221374511719 398.0588073730469 C 279.5678242914625 397.7799076313536 263.287620390254 396.8705139160156 247.17196655273438 396.8705139160156 C 245.56490137473526 396.8705139160156 250.24659750066903 395.93171208168025 251.76657104492188 395.40985107421875" style="stroke: rgb(0, 0, 0); fill: rgb(216, 216, 216);"/>
  <path d="M 304.88895376262417 412.8797854642781 C 316.1941925500691 412.6736019450127 327.50413903976465 412.7800749415995 338.80841064453125 412.96185302734375 C 343.89116281783555 413.0435861095519 348.9297197633504 413.0501558730933 353.9987487792969 413.4263610839844 C 358.6270797317687 413.76985926017767 387.52921626414724 416.0038113256269 368.9316711425781 419.5375671386719 C 367.5918175216827 419.7921553378411 365.45957736266314 420.0633614428941 364.2232971191406 420.17742919921875 C 360.7976582946229 420.4935023037908 357.3304514983127 420.64300817889676 353.8924255371094 420.4703063964844 C 345.0839605078306 420.0278322476443 336.0707307053331 417.2471412235653 327.2333068847656 417.7821960449219 C 321.3224240467268 418.14006576184164 315.8367413756526 422.2975447646835 309.66448974609375 419.6159362792969 C 309.14308240363744 419.3894046279984 306.2746729878586 417.3821959675399 306.1369323730469 416.9688415527344 C 305.83022689518714 416.0484299262025 307.88539024619104 413.20409444353356 306.7450866699219 412.4283447265625" style="stroke: rgb(0, 0, 0); fill: rgb(216, 216, 216);"/>
</svg>