<?xml version="1.0" encoding="utf-8"?>
<svg viewBox="0 0 500 500" xmlns="http://www.w3.org/2000/svg">
  <path d="M 13.87520826044052 44.58236114765636 C 12.171371626308918 63.28984058494916 12.228117723247767 81.9150985437561 11.703825950622559 100.71185302734375 C 11.356476238257656 113.16493278973624 10.06195289768627 125.12443598128122 8.984001159667969 137.52088928222656 C 8.077022323117555 147.9511528976576 7.9486775398254395 158.3780264925837 7.9486775398254395 168.8231201171875 C 7.9486775398254395 170.06260353636378 7.010705335676962 177.08934488577535 8.04941177368164 178.1279754638672 C 10.187784280014203 180.26619179830553 20.938932467214016 180.1250108866618 23.844165802001953 180.52694702148438 C 24.982241768853292 180.68439869662978 37.4981465201639 183.4819577530479 38.230506896972656 182.70391845703125 C 39.32732759770231 181.53868664920088 38.03597665487821 172.36329422594656 38.11484909057617 170.74266052246094 C 38.871179404113136 155.2019410526102 40.221660450156875 139.8456792425708 39.85531234741211 124.25194549560547 C 39.21194856553749 96.86694352117749 42.86614990234375 69.6772584503647 42.86614990234375 42.37926483154297 C 42.86614990234375 41.72941187127151 41.57413549244097 42.61974294616 40.926082611083984 42.571407318115234 C 38.838012260904534 42.41566664527655 36.79276382853339 42.03981217877102 34.732791900634766 41.694644927978516 C 32.81152674728686 41.372719273534756 21.4623408173264 38.14644658873226 19.620790481567383 39.87956619262695 C 18.15021449337822 41.26355446851461 16.62445527788788 41.37957972656502 15.770503997802734 43.29520034790039 C 15.517103292202561 43.86363982264446 14.68620147433075 47.451419830322266 14.227778434753418 47.451419830322266" style="stroke: rgb(0, 0, 0); fill: rgb(216, 216, 216);"/>
  <path d="M 72.76556179282109 50.99204326420295 C 57.08480813925939 107.60974489660158 43.481746673583984 164.75641803383212 43.481746673583984 223.94712829589844 C 43.481746673583984 225.54726339106665 43.922875536120415 220.77712791622264 44.17942428588867 219.19769287109375 C 44.86451369035077 214.9799595341301 45.92292103753453 210.83402832407083 46.43848419189453 206.5854034423828 C 47.8967229620897 194.56842847025905 47.66284441071621 182.36863680754675 49.16203689575195 170.3285369873047 C 51.86884752757431 148.58998738347796 54.83642217402858 126.9226921945747 57.74123764038086 105.21504211425781 C 60.99297116435197 80.9148776768105 60.516724516419785 60.42563304915108 82.7942123413086 46.72389602661133 C 95.22598783148348 39.07775029292011 93.03024173186249 59.775242062476096 93.86005401611328 64.90642547607422 C 95.01833083376845 72.06868483027675 95.71964417878588 76.19430177113531 101.22111511230469 78.86184692382812 C 102.09325940811182 79.28473097008462 101.41482300332787 86.28822683243551 101.4580307006836 86.9970703125 C 101.93116641822765 94.75909395855493 104.35502521143574 102.35241586423088 106.08247375488281 109.8861312866211 C 107.31964736877995 115.28166909904841 108.64492328040043 120.64554074154152 109.68279266357422 126.08381652832031 C 109.77368894434285 126.56009904597263 111.79654780275865 134.08942700164025 111.904541015625 133.97467041015625 C 115.97433425135856 129.64999492934226 118.15305838083029 121.47698261623395 121.01539611816406 116.3349838256836 C 125.90336319631258 107.554077059768 131.94408060388494 99.47517749724103 136.91461181640625 90.74662017822266 C 141.33870062153483 82.97764920330664 144.15756182968394 74.71485858913327 149.08480834960938 67.1878662109375 C 154.69341047877705 58.62001694505247 155.85707168323216 47.06630510971182 168.4220428466797 48.89714431762695 C 174.06424849260813 49.71926887177926 175.15129320772746 55.56489225741791 178.767822265625 59.18136215209961 C 180.5628654621124 60.97637598326838 184.89754212110543 59.39166140266577 186.3023681640625 61.763145446777344 C 188.36053726845094 65.23753661115705 186.3407594493709 79.81741095699702 186.12515258789062 82.2047348022461 C 184.5312714901148 99.85310798057583 179.53216034211385 117.0583689813495 176.95274353027344 134.57534790039062 C 175.59093812360118 143.82345254598843 174.75123339324537 153.12493047115316 174.27955627441406 162.46006774902344 C 173.570953367898 176.48429140484862 173.96277950599057 190.55016850140137 173.8131866455078 204.58563232421875 C 173.6760645961106 217.45102949233518 176.15600781190386 233.22202544741083 171.8712615966797 245.4986572265625 C 171.01018320289106 247.96581440286522 168.1178359054236 255.6479532040589 165.37203979492188 256.3984680175781 C 163.7475396978089 256.8424963934592 160.1676098877198 254.3942720639356 158.8429718017578 253.78871154785156 C 153.7225542238087 251.44790408962658 148.74631810122966 248.89217734221407 143.684326171875 246.43324279785156 C 141.15835844594255 245.20621806412547 139.64757627192347 244.61607065390893 137.10302734375 243.57351684570312 C 135.98013871344256 243.11344637711977 134.85906942351627 242.64882294097154 133.73216247558594 242.1986846923828 C 124.07268536189991 238.3402471184347 130.31948099855757 238.84397656554418 136.0527801513672 231.83798217773438 C 138.3310773166554 229.05394165789681 139.37455614661965 227.53522427461957 141.65472412109375 224.25120544433594 C 143.70178956449752 221.3029132403323 147.2769967270651 216.17423271053167 148.98593139648438 212.83837890625 C 157.39039926185617 196.43279207876154 163.69761009463755 175.16719639847162 165.07916259765625 156.6697235107422 C 166.1549200337221 142.26651120869622 166.53545749461824 127.8278706355962 162.2996368408203 113.93228912353516 C 161.03689323991958 109.78986713042809 159.09146743707106 105.70833092222486 158.3822021484375 101.41885375976562 C 158.07323920741325 99.55031528649148 158.14588853989184 99.68652205247086 158.0800018310547 97.9994888305664 C 158.0511926812121 97.26182878141402 158.03895568847656 95.04697962408576 158.03895568847656 95.78520202636719 C 158.03895568847656 101.2746665009603 153.9438652263933 106.99736643998934 151.4464569091797 111.59674072265625 C 148.43439247050998 117.1439360376817 145.10551233903237 122.31283325407999 141.4569854736328 127.46051788330078 C 138.80262219934698 131.205543076068 135.76135466678994 134.67358175756917 133.31430053710938 138.5618133544922 C 132.95649745771553 139.13034235509795 130.129297857815 143.88172528396154 129.52743530273438 144.99014282226562 C 128.47956022941014 146.91995736118253 127.54943312122131 148.9101839526938 126.48489379882812 150.8308563232422 C 123.56164347825784 156.1050683742295 117.1879775183728 174.1083573083092 108.98138427734375 172.99798583984375 C 100.18856553811466 171.80829667545132 102.18953978548647 161.80131519242457 101.42072296142578 154.88821411132812 C 99.57458782120077 138.28800657901698 105.08191645222699 123.24568863774445 88.81587982177734 114.26060485839844 C 86.87977882923603 113.19113538538042 83.55385723495934 110.7177796798009 81.22723388671875 110.69013977050781 C 79.5066472318022 110.6696994791694 81.08014328099442 114.12922818038986 80.94182586669922 115.84436798095703 C 80.30708833900195 123.71513105308675 80.78848759590144 131.63894727169895 80.10797119140625 139.50572204589844 C 78.60647677916921 156.86300878838296 73.22946997286245 173.83992117881738 71.44482421875 191.21969604492188 C 70.4266711884815 201.13498057941987 74.4268444279996 212.32562493250984 72.29174041748047 221.82797241210938 C 71.51034722793524 225.30558735202322 67.26692840399657 223.8054051250032 65.01648712158203 223.3278045654297 C 58.39718891716915 221.92302206738577 51.69267702948829 220.31726138788304 45.21847915649414 218.3507843017578 C 43.25227760149974 217.7535689585678 40.008840718834804 218.16805653252396 38.89274215698242 216.36407470703125" style="stroke: rgb(0, 0, 0); fill: rgb(216, 216, 216);"/>
  <path d="M 185.42001552339423 168.63843801453123 C 194.40660820969356 142.66479742825737 207.3011016608135 115.26345569606391 209.4507293701172 87.51007080078125 C 210.39784904970207 75.28201061359147 211.32943629622596 64.48545587070983 213.56590270996094 52.504920959472656 C 214.12196024274903 49.52617437811948 213.57085029121302 43.316677758620614 215.75035095214844 41.12568283081055 C 218.28269789700462 38.57998077571048 224.2453128184816 40.16857792778124 227.14263916015625 40.33473587036133 C 236.0325116169705 40.84455863211825 244.40170570924394 42.18438582074541 253.17498779296875 43.39406967163086 C 256.28546433790075 43.822950586327806 260.71539332967177 45.90676237427586 263.811767578125 44.95545196533203 C 265.2565404947713 44.51156908688079 264.7982458346574 49.67053221676667 264.89373779296875 50.546199798583984 C 265.3959709805633 55.151711389992286 265.89957325142984 59.74528755676201 266.3189392089844 64.35984802246094 C 267.3411901470163 75.6083499089122 268.1943611731242 86.9973354768596 269.90618896484375 98.16551208496094 C 271.3279453811812 107.4412271003181 272.65054713215875 117.35381247388095 276.8400573730469 125.88981628417969 C 283.35626297338257 139.16639341014084 291.14580712078555 150.7099443457347 292.9239501953125 165.7152862548828 C 293.2405277709176 168.38681186537832 294.9558168666833 172.13541543328506 294.3715515136719 174.98841857910156 C 294.1185102767869 176.22403428202355 292.0231095161212 174.06738409447365 290.8551940917969 173.59120178222656 C 289.16589881950534 172.90244255182833 287.3842012624638 172.45788812521707 285.5796813964844 172.20144653320312 C 278.9088815315193 171.25345445529402 272.3235037019182 172.3301544189453 265.6529541015625 172.3301544189453 C 264.5860785256239 172.3301544189453 259.5379414245762 171.51648149597045 258.6873779296875 172.31710815429688 C 258.0815329561665 172.88738378866026 258.7862548828125 170.65502114216096 258.7862548828125 169.822998046875 C 258.7862548828125 168.75389144939655 258.80552755978437 165.32089389223654 258.7284240722656 164.2527618408203 C 258.3840204738887 159.48166089729966 257.4672886476931 155.0494976811142 256.1764831542969 150.4484405517578 C 254.30621042674048 143.781881018979 252.34953922466286 137.73279684048532 252.0240020751953 130.85191345214844 C 251.96954804435853 129.70091782284612 252.37036669820748 124.94633990870753 251.59307861328125 124.12322998046875 C 251.00812457262145 123.50379236426477 241.98863147149254 123.81313811493479 240.9786834716797 123.66059875488281 C 239.23357965336672 123.3970237790236 230.90436986644445 120.95857493823607 229.47259521484375 122.30628967285156 C 227.07791587415588 124.56037667496199 226.28971119612453 129.50211473061816 224.4153594970703 132.3069610595703 C 216.6713544175342 143.8953647885417 211.09594809710325 158.19003782968073 202.82278442382812 169.1103973388672 C 202.40721579321385 169.65893705429767 194.06085137037982 166.71745682408528 192.71951293945312 166.5099639892578 C 191.10160518696154 166.25968840010475 186.14468235419176 167.14714893929835 185.03759765625 166.39430236816406" style="stroke: rgb(0, 0, 0); fill: rgb(216, 216, 216);"/>
  <path d="M 237.94359226189428 68.19521220448024 C 235.12210595159212 73.00457572405026 232.73846039313884 77.91734362202362 230.98919677734375 83.22513580322266 C 229.73931508162173 87.01765296991724 228.72848765419883 91.30517506835119 228.14251708984375 95.28153228759766 C 228.0369112522317 95.99816646741415 227.87814088703072 101.30986689252086 228.09774780273438 101.3031997680664 C 230.4636880679239 101.23137134613685 233.32532578825348 99.56241284994476 236.3262481689453 99.77166748046875 C 244.7971685184206 100.36234563973485 247.59013100424994 106.20563884239658 253.13954162597656 97.05557250976562 C 253.89088639849112 95.81672842778909 254.33144710184757 94.41355757854053 254.45281982421875 92.9702377319336 C 255.06534122617484 85.68635813655608 250.80607892185563 78.71751067443167 247.60475158691406 72.50440216064453 C 247.21355554545235 71.74517225333796 246.80715286001015 70.99372516073969 246.3922119140625 70.24720764160156 C 245.98067129404947 69.50680762642578 245.54935881448688 68.7775682069749 245.1255645751953 68.04411315917969 C 242.34539774652427 63.23251544230121 242.50745836657077 68.03105163574219 238.9901123046875 68.03105163574219" style="stroke: rgb(0, 0, 0); fill: rgb(216, 216, 216);"/>
  <path d="M 362.87643007020597 112.20114966936217 C 369.90896218560465 111.779022601782 376.97274064553767 111.57939189774193 384.0138244628906 111.39900970458984 C 384.7944501640097 111.37901122429173 389.91023470948954 111.94677198068332 390.55035400390625 111.26656341552734 C 394.12399476229774 107.46911335606073 392.12481689453125 92.94240681291087 392.12481689453125 88.60508728027344 C 392.12481689453125 79.60081623631673 392.140666359229 67.18384822808122 387.1384582519531 59.15711212158203 C 375.61211426855255 40.661495897035216 347.24710338293596 37.991820977573454 329.7460632324219 48.828121185302734 C 309.8009397200893 61.17774979029325 310.0394592285156 84.61640915676531 310.0394592285156 105.50045776367188 C 310.0394592285156 135.1136668208017 308.9768090620366 164.78319640243433 308.5396423339844 194.39842224121094 C 308.43262911633406 201.64787743778626 308.76997239785186 209.04419310898433 308.2262268066406 216.2745361328125 C 307.5633358484119 225.0891897003227 304.5197314679285 233.80501547700337 308.22998046875 242.7154083251953 C 309.34968930109795 245.40445845891995 315.11998509211793 246.94334828192297 317.3352355957031 248.093505859375 C 326.19778010391326 252.69493703166307 334.57299853131997 258.42576995050086 344.65472412109375 259.9857482910156 C 351.41079727643097 261.0311375644501 350.9157742709469 254.6930706118925 351.0513610839844 248.8844451904297 C 351.33915870363455 236.55501187545255 349.12680793334385 226.9239538302408 352.50640869140625 214.82322692871094 C 356.099376402195 201.95853546166433 363.18471182087785 198.8265156268336 372.199951171875 190.10601806640625 C 374.35996116944085 188.01662684994474 377.82237249591685 184.24588709681709 374.9533386230469 181.4932403564453 C 372.63186148595304 179.26593780184822 369.3007164226004 178.81756330714757 366.21929931640625 178.5271759033203 C 359.12881618335206 177.8589810702516 351.6874485907036 178.88162231445312 344.56890869140625 178.88162231445312 C 343.2798751880553 178.88162231445312 338.1480338222404 178.21149307862342 337.3291015625 178.9823455810547 C 336.07717450680997 180.1607716257754 335.84253804398884 193.5236080287604 338.2935485839844 194.57937622070312 C 342.07202406907743 196.20694744738734 344.71930074257335 194.09915436489337 348.2979431152344 193.79774475097656 C 349.8080600595313 193.67055580115945 354.06737534450417 192.95362087272335 352.84405517578125 193.84811401367188 C 350.82118531681704 195.3272388250971 347.785467340271 196.3141673188214 346.3858642578125 198.46322631835938 C 342.12399606254826 205.00722891071504 342.43969813075387 214.67244734368185 335.9822692871094 220.07818603515625 C 331.1435640920818 224.12883475661178 325.1436893911747 212.22404189519509 324.48175048828125 209.1466522216797 C 323.7256819230283 205.63164866922406 323.6037503694345 202.1458244438977 323.5770263671875 198.56024169921875 C 323.530737457329 192.34961819587323 323.67784342574424 186.2775913269442 324.47430419921875 180.1072235107422 C 326.0949246465098 167.55189802167834 328.44680488862963 155.3634849896648 326.5430908203125 142.69937133789062 C 324.65955234723083 130.16947218571303 326.58885593708766 118.22097968359247 327.3582763671875 105.7261734008789 C 327.73812634014274 99.55769691793239 327.40711609637725 91.08504297201844 329.67889404296875 85.24168395996094 C 330.35822915474637 83.49433054737558 331.3002163569994 81.79125689371173 332.2681579589844 80.19377899169922 C 340.14594060464185 67.19239164819867 345.10158703577696 75.09248521895321 355.7765197753906 81.42497253417969 C 359.185017663051 83.44693090750866 362.62612699889377 85.4185411104994 365.9581604003906 87.56417083740234 C 376.63641879546014 94.4403289916752 371.9039223747447 96.88637394929748 365.6745910644531 104.92589569091797 C 364.02150348012 107.05935639689977 363.16674512888966 109.46164657100553 363.0163269042969 112.13399505615234 C 362.98136409388155 112.75514860122854 363.68500977856314 115.73990631103516 363.6804504394531 115.73990631103516" style="stroke: rgb(0, 0, 0); fill: rgb(216, 216, 216);"/>
  <path d="M 414.4523588124296 63.807676599673016 C 403.05644136589416 110.06354836734407 402.8047805064384 159.8426226234668 403.7372131347656 207.16368103027344 C 404.03675483572016 222.36545528775798 402.13293749715046 236.86652750214873 399.3534240722656 251.73858642578125 C 398.44814010949193 256.58239697062413 397.614546451591 261.17471183150815 396.0739440917969 265.8619079589844 C 395.56058879839 267.423762598489 395.0954768583491 269.0595801014486 394.4267578125 270.564697265625 C 394.27511785777614 270.9060003884335 393.4755413561131 271.89487625281555 393.52947998046875 271.8574523925781 C 396.11248927922014 270.0653010327099 405.68969713446535 270.81988288899163 407.9643249511719 270.6299743652344 C 422.18810522246247 269.44243190500043 438.179402345222 264.4843851546286 452.3302917480469 268.7123107910156 C 455.46790138703767 269.64974870407116 470.6829915613898 274.88909700441525 473.32220458984375 270.7288513183594 C 476.19649724080574 266.1980447966018 474.8175324600336 257.785252682324 475.1092834472656 252.8317413330078 C 475.5222526405098 245.82011952133536 476.50002759535414 238.9362824084651 476.58673095703125 231.8883514404297 C 476.5891390561244 231.69260221174457 476.6547055597408 226.64190183401803 476.5550231933594 226.63897705078125 C 474.60820235232563 226.58185532336276 470.00358503166933 228.901580144585 467.7426452636719 229.13307189941406 C 457.0767381043268 230.22512645129066 446.3848232373734 230.1956421035006 435.6923522949219 229.72068786621094 C 433.2037053446146 229.61014340735497 426.03246153288745 231.04112349881345 424.3149719238281 229.7785186767578 C 423.56891028819535 229.23005479451248 424.134033203125 223.30442896072032 424.134033203125 222.94911193847656 C 424.134033203125 215.4095336295576 423.01286067198396 208.07685215178927 422.2219543457031 200.5991668701172 C 421.7845539853148 196.46373119538427 418.0593224970813 184.40341560297946 419.8789367675781 180.53627014160156 C 421.49207876114735 177.10793104790665 426.45610865589845 176.91095559005868 429.5233154296875 176.68971252441406 C 437.0281341174745 176.14837663934037 444.3597208804119 176.04488931282108 451.8658142089844 176.5498046875 C 452.3571027652647 176.5828523908273 463.288365723723 178.14078298475306 464.0583801269531 175.9827117919922 C 465.3742469555827 172.2948141572692 463.5281559250061 167.4990124624496 463.0827331542969 163.84423828125 C 462.55715937674694 159.53181063089335 465.3330857307295 144.71206743946928 460.8199462890625 141.5614471435547 C 458.15109550673156 139.69832380108744 452.55330047197884 140.9161346172522 449.68695068359375 140.9365234375 C 442.81217553362876 140.9854248504904 435.8560778899409 140.90358766906115 429.01031494140625 140.22206115722656 C 427.2841660539265 140.0502152667049 423.4502886586359 139.81042508972754 422.32269287109375 138.07679748535156 C 421.01886568737274 136.07222206745152 421.40996569138986 131.3312566715208 421.3470458984375 129.11517333984375 C 421.11221060708306 120.84409439249137 419.6212355428472 106.08590390538933 426.357666015625 99.71756744384766 C 429.245760547024 96.98728502157492 436.78952805594605 97.68124781058725 440.0388488769531 97.4976806640625 C 447.86563376931855 97.05551423966207 455.75091834430543 96.67324271323314 463.5882873535156 96.52391815185547 C 474.14192640436187 96.32284078515832 479.7144117978947 96.54237267580942 484.1865539550781 85.83863067626953 C 485.57622315885976 82.51256005973241 484.70060954136466 78.76749727682966 483.38629150390625 75.57305908203125 C 476.41568673565985 58.6310667499549 458.3945627188628 63.69183532043163 444.03277587890625 66.0555419921875 C 438.7662068088497 66.92232998917419 432.85931520677775 68.2253869024145 427.4992980957031 67.2139892578125 C 423.20689291620374 66.40404249864018 417.52268596663833 62.619384765625 413.3685302734375 62.619384765625" style="stroke: rgb(0, 0, 0); fill: rgb(216, 216, 216);"/>
  <path d="M 205.38777960241484 313.5595598387908 C 205.59004994304286 309.4611676730769 205.5788953387283 305.38461185394056 205.64894104003906 301.2830505371094 C 205.65200893271495 301.10340853641384 205.85512188014224 294.6195807125166 205.8970489501953 293.9406433105469 C 206.22048448822434 288.7031563214476 206.0860136289564 291.76862643113435 206.53875732421875 287.66900634765625 C 207.59450059201077 278.10919060879974 205.39537838317003 280.69256283724235 214.7355499267578 281.4440002441406 C 217.37746051025124 281.6565477791461 220.0268308407467 281.7639316448324 222.67115783691406 281.9439392089844 C 228.37130897496908 282.3319662280129 229.3206203377282 282.53520597752265 235.12863159179688 282.70318603515625 C 241.11385592465348 282.87629147252585 252.41015255972968 280.24951127997866 258.43927001953125 282.8580017089844 C 259.76102224033156 283.42985622010684 253.8599224384631 293.8691342414522 253.4697265625 294.895751953125 C 250.8894883565045 301.6844404190699 249.50564575195312 308.97094080645957 249.50564575195312 316.23089599609375 C 249.50564575195312 317.54889042509353 248.30863967644476 325.05072021484375 248.42555236816406 325.05072021484375 C 263.56660916233113 325.05072021484375 278.71308570718384 325.301392564922 293.856689453125 325.40142822265625 C 296.1840302503567 325.4168021766588 308.3835973439026 323.6840123829651 310.296875 325.5972900390625 C 311.26898789918545 326.56940293824795 309.4831993000924 332.96237382691623 309.3287353515625 333.76422119140625 C 307.50948263052356 343.2082566028421 305.73317873888254 354.3431993694131 302.5981750488281 363.3800964355469 C 302.38990568706583 363.9804494080955 287.55253733843625 361.52745899311884 287.4917907714844 361.520263671875 C 274.56429527091296 359.98902515631835 261.54973946767313 358.5412842515358 248.5113525390625 358.82281494140625 C 244.96554245100694 358.89937766083665 235.8832023455543 358.3134162587668 231.9965362548828 360.169677734375 C 231.3654813440679 360.47106789566277 233.39491652843878 360.11843272134456 234.09144592285156 360.0558776855469 C 235.21939614925057 359.95457691151444 238.13360791333247 359.17346575580217 239.18411254882812 359.6827697753906 C 239.78836966850807 359.97572477008487 238.74147947337627 364.7823170680568 238.6897735595703 365.0720520019531 C 237.56096054827984 371.3973741775737 236.71062834609205 377.7667225513916 235.55955505371094 384.08843994140625 C 234.43866392569362 390.24439628510885 233.17297442554744 396.37198924474313 232.34352111816406 402.576904296875 C 232.11048417373874 404.32019042437156 231.84577457944965 406.061310018169 231.62158203125 407.8057556152344 C 231.5319253030148 408.5033759691362 231.4648895263672 410.61336166988065 231.4648895263672 409.9100036621094 C 231.4648895263672 408.8307483703048 227.95553331672636 406.84479211874253 227.45790100097656 406.5428466796875 C 219.91428502884077 401.96565109837366 211.59527567388062 399.20964314590145 202.76123046875 398.941162109375 C 202.33056015882525 398.9280733365054 196.43827046899787 399.8465540164515 195.90756225585938 399.31610107421875 C 195.15789098722928 398.56679039782944 196.6000831509489 390.6015432270424 196.62576293945312 390.3414306640625 C 197.56913596049102 380.7859324048833 200.44577608268386 371.5703744147085 201.54495239257812 362.0313720703125 C 201.86768234412014 359.23061869102776 204.07063020284443 355.5832971789073 202.0766143798828 353.5902404785156 C 199.54985703276807 351.0646985029002 189.43622667192486 351.4327975555925 186.3508758544922 350.98419189453125 C 182.6301763323864 350.4432074271268 178.95832905127997 349.7534772331386 175.2122802734375 349.3929748535156 C 165.72245572669576 348.479718103753 162.55443277309666 352.49111082258077 163.9039306640625 342.0505676269531 C 164.25506503143689 339.3339768456087 164.59656240817236 336.6176176979648 164.94297790527344 333.9004211425781 C 165.83621466795606 326.8940952852863 165.12352606772797 333.56880691530586 165.95591735839844 324.6365966796875 C 166.50627207359378 318.7308597079217 167.33739738802979 312.892291462205 168.54330444335938 307.0845947265625 C 169.93423899762792 300.38579813638097 171.83867510964652 304.76105597135086 178.18394470214844 306.00262451171875 C 183.25879234916218 306.9956116644061 188.6339707345445 306.87692651208124 193.78656005859375 306.7525329589844 C 196.8089913399205 306.67956557454323 199.0994166311614 306.03696245088526 201.8714141845703 306.9017639160156 C 203.40904435514233 307.3814702644949 208.1308328856077 308.22064208984375 206.52011108398438 308.22064208984375" style="stroke: rgb(0, 0, 0); fill: rgb(216, 216, 216);"/>
  <path d="M 13.089854310770523 408.0389457982599 C 40.66943580961531 407.73803337761933 68.24529444920167 408.1758602937939 95.83183288574219 408.031494140625 C 101.30812530352613 408.00283555151634 106.78615666617091 408.031494140625 112.26271057128906 408.031494140625 C 114.38819080857449 408.031494140625 118.42729153209609 405.8512578518368 118.6388168334961 407.9661865234375 C 119.13594772294483 412.9367331420914 116.95718836623072 418.57987751209646 116.84984588623047 423.604248046875 C 116.80081611263648 425.8991805821761 116.84984588623047 428.2013229150704 116.84984588623047 430.4970703125 C 116.84984588623047 431.44353373469306 117.82615549982977 433.3363037109375 116.87969207763672 433.3363037109375 C 106.14625351610252 433.3363037109375 94.90583038337964 432.3029987990864 83.9395980834961 432.4241027832031 C 81.05721240906769 432.4559339882505 74.53084246795966 431.49231984236127 72.02684783935547 433.84930419921875 C 71.10656572257498 434.7155562783442 72.03862856618188 442.3281815699048 72.04736328125 443.2865905761719 C 72.14131387827311 453.59523803964487 72.46006969976463 464.1741597988791 71.80485534667969 474.4656982421875 C 71.61262477302587 477.48508926960136 72.4269557791001 486.2186453070104 70.68558502197266 487.87457275390625 C 70.1489202400776 488.3849051678882 68.55523265167191 491.0619186276654 67.68035125732422 490.6372985839844 C 65.70345924013769 489.6778222708364 63.741120373177615 488.7180921145255 61.70531463623047 487.865234375 C 61.50403140368484 487.78091102351425 56.963356320585405 485.9066864074612 56.344017028808594 485.67333984375 C 49.45742396085812 483.07869931404383 49.13736050007939 485.61515306714284 50.49583435058594 477.93731689453125 C 50.92474711468612 475.5131834201362 51.36448431210024 473.0765851332885 51.80537796020508 470.65460205078125 C 51.885031543245915 470.2170370474857 53.075135273446456 463.01169823702384 53.18394470214844 462.302978515625 C 53.96562041048885 457.2116091660386 54.27709769456802 452.1346971344674 54.49162673950195 446.9969787597656 C 54.56862370165176 445.1529920522542 54.590492248535156 443.3231136141799 54.590492248535156 441.47711181640625 C 54.590492248535156 440.62451257227156 54.943657073931575 438.16165699804134 54.553184509277344 438.9195861816406 C 53.39392911752908 441.16976602059765 39.90167857081056 439.7108026497009 38.1092529296875 439.6545715332031 C 32.05450256768089 439.46462481231293 25.9834680741087 438.4216793696175 20.089017868041992 437.0634765625 C 19.238571227221186 436.867516129468 14.926837651791418 436.4323892088878 14.281876564025879 435.46478271484375 C 11.90369227694984 431.8968983821926 16.092682862099178 419.36754753239313 16.46631622314453 415.4261169433594 C 16.61921901763634 413.8131567149883 16.150681489297906 404.94664317931216 17.020355224609375 405.63812255859375" style="stroke: rgb(0, 0, 0); fill: rgb(216, 216, 216);"/>
  <path d="M 139.50945482190167 419.9684909482353 C 138.14549199187672 431.52257460718556 134.9393056866952 442.728928661218 133.89071655273438 454.3580322265625 C 133.3720579170036 460.11008018760776 133.60918206415536 466.46277744330445 133.55494689941406 472.1805419921875 C 133.48839287775886 479.19702709776453 133.05630408098224 486.24141081802077 133.773193359375 493.2395935058594 C 133.78428845410835 493.34790242081056 133.9326151282772 500.1820619041142 134.6704864501953 500.6789855957031 C 135.13886085770994 500.99441503809277 140.33966300478966 499.6599907650385 140.63058471679688 499.6082458496094 C 145.68496937727488 498.7092455481249 150.600822934884 497.4611626636028 155.61387634277344 496.3810119628906 C 174.76047072781745 492.25554078624015 195.14668572524707 489.6542053222656 214.72808837890625 489.6542053222656 C 215.77190921254874 489.6542053222656 213.15060246614036 488.2848225073085 212.4055938720703 487.5537109375 C 210.45798123227047 485.6424281069437 208.33305704908753 483.7626996572157 206.75515747070312 481.5152587890625 C 204.22961203006577 477.9180627979982 203.02217370409406 469.82580927360914 199.32879638671875 467.36395263671875 C 198.60699649503061 466.8828298861404 191.0242937707762 470.5445537028944 190.71043395996094 470.6490173339844 C 187.3379989252268 471.7714828335594 184.973989206551 472.3817890373201 181.32162475585938 472.982666015625 C 179.48603418799874 473.284652339474 177.62804425080463 473.43007782810133 175.7793731689453 473.637451171875 C 172.573345022574 473.99708506427993 153.68741029896083 478.5468953593388 153.24661254882812 472.8558349609375 C 153.02867983218124 470.0421448891261 151.68654311530216 461.41238187520406 154.1028594970703 459.2119445800781 C 155.68349661917267 457.7725250985161 160.2709169738592 458.61448644367755 162.03102111816406 458.5273132324219 C 167.19189532054855 458.27170905208743 186.51132197580105 459.83462563756257 189.427001953125 451.550537109375 C 191.1596415358696 446.6277267177928 174.6054864980985 445.3731206491998 172.11749267578125 445.4113464355469 C 170.3809454261722 445.43802692146676 168.83522457963142 445.72857446389816 167.22628784179688 446.34967041015625 C 166.5421012130365 446.6137861653717 165.01909457679884 447.9741054508729 165.2283935546875 447.2712097167969 C 169.2798203103661 433.66516819564293 173.97496539191917 434.8846130371094 187.65481567382812 434.8846130371094 C 192.6596571823605 434.8846130371094 193.72493754253395 434.91942778513516 198.19647216796875 434.8174743652344 C 200.28122383240648 434.7699408941472 208.73642097754902 435.8116364088449 210.79757690429688 433.4911193847656 C 212.50384393267498 431.5701479358836 208.56191632941545 427.20135084443893 207.62818908691406 426.066650390625 C 202.57565094542397 419.9266160625033 198.46747699896227 417.05055764902824 190.76266479492188 416.89984130859375 C 180.90547152053668 416.7070215411643 172.3184231416315 420.73019298330604 162.8667449951172 422.9158935546875 C 155.3512939914057 424.6538415992958 146.45143775667697 422.71441650390625 139.95156860351562 422.71441650390625" style="stroke: rgb(0, 0, 0); fill: rgb(216, 216, 216);"/>
  <path d="M 276.1200021906272 446.61642722147985 C 273.43665644103817 443.78783112163046 271.11847704545494 440.7606495895686 268.5257568359375 437.86187744140625 C 266.9857689530635 436.1401050854861 265.35359630786803 434.4964154224284 263.73529052734375 432.84942626953125 C 262.53100531230285 431.6237959158386 261.40025650584795 430.56343533597374 260.4371643066406 429.1315612792969 C 256.14365593275335 422.7482022844324 257.94369744561544 423.83567965642146 249.3340301513672 424.0799255371094 C 247.7177560991482 424.1257772832716 246.07814050445748 424.03181980846864 244.46519470214844 423.9306945800781 C 242.3157702089476 423.7959342908781 235.73168480481164 421.9413389742667 233.78736877441406 422.856201171875 C 232.92278048516678 423.26301731182394 234.01584667067087 433.95764780003293 233.86386108398438 435.28009033203125 C 232.98424285974284 442.9337407670376 230.77669695829445 441.5106563386202 239.21583557128906 445.52886962890625 C 240.68409710090756 446.2279679921971 242.18275972218171 446.86417662901636 243.63320922851562 447.5995178222656 C 244.41011635018725 447.99339007179873 248.53622992054758 450.2958425575155 249.57093811035156 451.0188903808594 C 254.86699790157454 454.719744923306 258.10051003515 460.59880300909475 263.2446594238281 464.4762268066406 C 265.02531228518285 465.8184012378461 269.92144262481395 466.33648639396534 270.6952819824219 468.7070617675781 C 271.00879471577036 469.66747500797896 266.6874007281411 472.6047931897547 266.00927734375 473.1412353515625 C 259.9512402910228 477.93355864800077 251.54586893181667 479.65183396820333 246.0452423095703 484.6566467285156 C 245.04342975348644 485.56815819956364 239.33806451976994 490.7711478742507 241.00106811523438 492.4542236328125 C 242.20315959419403 493.67082414608177 246.60674504812093 493.993702121238 248.041259765625 494.3345947265625 C 255.52701306431013 496.11348058508145 260.91069686494683 495.92461987691877 268.3466796875 495.1404724121094 C 269.3003495221201 495.0399049685141 274.34993289076726 496.26747977438765 274.75823974609375 495.95196533203125 C 279.12924849295166 492.57431842429816 283.3165978115062 485.9122899372047 285.5199890136719 481.04888916015625 C 286.33492726603373 479.25012944563633 286.63571302439254 477.1654179408436 287.0123596191406 475.2454833984375 C 287.2095868917285 474.2401286212375 286.88078199974206 471.684730950436 287.7305603027344 472.25701904296875 C 290.18000182575827 473.90660954445093 292.44612880279016 477.0889397094167 294.53570556640625 479.2188720703125 C 302.7545548295873 487.5964504009023 305.89561449193826 489.25658155639115 317.4583435058594 489.16357421875 C 324.07781463154487 489.11032905618924 319.80058932704327 489.2854004469912 326.8172912597656 488.95465087890625 C 330.60377804269615 488.77616547650183 334.393880340434 488.69615825130955 338.17974853515625 488.51068115234375 C 342.7290730575371 488.2878008323576 347.24184434723935 487.8390774193893 351.7825927734375 487.5406494140625 C 352.39570836404596 487.50035410466273 356.09387533720536 487.79940308414524 356.5077819824219 487.35968017578125 C 356.9375777464243 486.90307710952504 355.4762340415247 486.64558847340294 354.9781188964844 486.2646789550781 C 353.7132800835163 485.29745451349413 352.5189354919826 484.24104233177206 351.2696228027344 483.25384521484375 C 345.9894607775997 479.0815024755219 340.5129564195467 475.6006142300044 334.81634521484375 472.00146484375 C 328.12594728710343 467.77443569780013 321.34248358173016 464.43743279769956 314.27587890625 460.9076232910156 C 312.4631636611756 460.0021616444662 310.59523280527475 456.2990390865013 309.1197814941406 457.6878662109375 C 308.2210719153774 458.5338122821891 309.05515120634647 455.1747062591969 309.4275817871094 453.9980163574219 C 310.37413080395936 451.00740622175346 311.9792194284176 448.19654919751974 313.3991394042969 445.4113464355469 C 317.52627942926347 437.3158748654201 322.1905757288013 429.7625182721921 327.278076171875 422.2312927246094 C 328.90091801718575 419.8289365770576 330.4736763482887 417.50275163667385 331.7588806152344 414.9056701660156 C 332.4241411523014 413.56134237438533 335.0917062264589 410.95729000527365 333.6000671386719 410.7998046875 C 324.8440482777311 409.87535558715274 315.85473874831473 410.89667667135143 307.02490234375 409.90252685546875 C 303.1157934899393 409.4624009381559 299.2150560390709 408.9049600469664 295.29681396484375 408.5426025390625 C 294.0111299226882 408.42370297730963 291.2218735531099 407.0795885491505 291.4278869628906 408.3542175292969 C 291.81580582800143 410.7543167652739 289.7566063506516 414.12535238625696 288.9916076660156 416.2804870605469 C 286.145786008495 424.29766284678556 281.4661878593478 430.4308643576991 277.62542724609375 437.86187744140625 C 276.5165812441805 440.0072465434531 275.7980608932018 442.3587154385951 275.239501953125 444.70062255859375 C 274.94774491179015 445.9238916594659 275.6762819702005 448.38299560546875 274.418701171875 448.38299560546875" style="stroke: rgb(0, 0, 0); fill: rgb(216, 216, 216);"/>
  <path d="M 366.3928010800111 408.2124325377357 C 365.1623303137945 416.2581684348567 363.30317510250444 424.19720380151244 362.07427978515625 432.2487487792969 C 361.69608518620214 434.72662527605564 361.1670908056841 437.3042317171781 361.0091247558594 439.8056640625 C 360.9214913803712 441.1933607240231 360.46201477197997 445.23500398662264 361.05389404296875 443.976806640625 C 364.4747220099121 436.70492387653985 383.7323483795724 439.2383573299871 389.4590759277344 439.5314636230469 C 392.5023516484129 439.6872250518463 395.54041068166066 440.0626321292624 398.58673095703125 440.2291259765625 C 400.0012905125507 440.30643743476264 402.8790368573667 438.8802719166224 402.8362121582031 440.2962951660156 C 402.4538782047757 452.9383867080326 395.73542102894737 466.4540628912877 393.9510803222656 479.1946105957031 C 393.8593103367367 479.8498665533159 392.7501287950665 490.8401371642645 394.6897888183594 491.4021301269531 C 400.58099068138443 493.1090344034961 407.2737600893287 491.9175404492071 413.2491455078125 491.672607421875 C 421.28737018620825 491.3431179300734 411.75040968958075 492.0410152232686 422.2816467285156 491.2472839355469 C 424.7994511307973 491.05751894183663 427.3197053516702 490.8840052377337 429.8292541503906 490.6055908203125 C 438.99554002975054 489.5886645328783 441.59208891149956 490.6567597894474 436.66424560546875 482.86956787109375 C 435.72544727125836 481.38603798852216 432.3683870363553 476.0991353291082 431.3253479003906 474.30340576171875 C 429.1766977857736 470.6042209394502 427.688184388235 467.9859659658441 426.1412658691406 464.0322570800781 C 422.46496592268994 454.63614501237055 424.5462951660156 446.7063061486367 424.5462951660156 437.43096923828125 C 424.5462951660156 435.86869050711834 427.6304323447565 437.9891215379906 429.1912841796875 438.0558776855469 C 431.61062874231976 438.15935075006075 434.0319362835387 438.23373220648864 436.4534606933594 438.24615478515625 C 447.71824589153675 438.3039438703006 459.0067521402901 437.70892333984375 470.29083251953125 437.70892333984375 C 473.123225881384 437.70892333984375 475.95375627235006 437.7704772949219 478.7861022949219 437.7704772949219 C 480.1901550292972 437.7704772949219 481.59420776367153 437.7704772949219 482.9982604980469 437.7704772949219 C 483.7034098307292 437.7704772949219 485.37822593887336 438.4241332471227 485.11370849609375 437.7704772949219 C 481.80989405879865 429.60633526628357 482.3695825113785 420.0942446324884 479.1741027832031 411.6821594238281 C 478.5371717843036 410.0054415940959 477.7388893725375 405.9943661748443 476.18377685546875 404.8341064453125 C 474.39786323659456 403.50164745623056 472.00832558846764 406.4629410328786 469.8188781738281 406.87677001953125 C 461.104372207244 408.52390488525896 452.3089176349521 409.1975442627653 443.45263671875 409.5555419921875 C 413.90009203637834 410.7501454600587 384.10427570325646 409.17307727665843 354.57330322265625 407.9736633300781 C 334.76036282150454 407.1689516987386 346.7389558255092 407.4307290754249 330.3504638671875 407.1491394042969 C 329.06997921394793 407.127137913659 321.18433471478255 406.07362743912404 319.72113037109375 407.1435241699219 C 319.5625984540828 407.2594428934199 323.7124299167203 407.85961443847987 324.1049499511719 407.912109375 C 326.4758467072523 408.22918892198436 328.87208381285114 408.52873142725076 331.257080078125 408.72357177734375 C 339.76314777038925 409.41846813051893 348.2280036818439 410.81663278797345 356.74468994140625 411.3146667480469 C 359.4343913007424 411.47195358221916 362.1326528117891 411.3868841471375 364.81463623046875 411.50494384765625 C 365.27753187496063 411.52532030516136 368.4231498472582 411.604726581379 368.2358703613281 411.4172668457031" style="stroke: rgb(0, 0, 0); fill: rgb(216, 216, 216);"/>
</svg>