<?xml version="1.0" encoding="UTF-8"?>
<svg id="Layer_1" data-name="Layer 1" xmlns="http://www.w3.org/2000/svg" viewBox="0 0 160 139.69">
  <defs>
    <style>
      .cls-1 {
        fill: #6195bc;
      }

      .cls-1, .cls-2, .cls-3, .cls-4 {
        stroke-width: 0px;
      }

      .cls-2 {
        fill: #ccc;
      }

      .cls-3 {
        fill: #b3b3b3;
      }

      .cls-4 {
        fill: #fff;
      }
    </style>
  </defs>
  <path class="cls-4" d="m24.65,20.78h110.71v110.71H24.65V20.78Z"/>
  <path class="cls-4" d="m55.09,59.53h49.82v66.42h-49.82V59.53Z"/>
  <path class="cls-3" d="m55.09,17.31h49.82v33.21h-49.82V17.31Z"/>
  <path class="cls-1" d="m55.09,67.83h43.67v5.54h-43.67v-5.54Z"/>
  <path class="cls-1" d="m55.09,78.9h26.51v5.54h-26.51v-5.54Z"/>
  <g>
    <path class="cls-3" d="m55.09,92.74h40.55v5.54h-40.55v-5.54Z"/>
    <path class="cls-3" d="m55.09,103.81h43.67v5.54h-43.67v-5.54Z"/>
    <path class="cls-3" d="m55.09,114.88h21.84v5.54h-21.84v-5.54Z"/>
  </g>
  <path class="cls-4" d="m0,59.53h49.82v66.42H0V59.53Z"/>
  <path class="cls-3" d="m0,17.31h49.82v33.21H0V17.31Z"/>
  <path class="cls-1" d="m0,67.83h43.67v5.54H0v-5.54Z"/>
  <path class="cls-1" d="m0,78.9h26.51v5.54H0v-5.54Z"/>
  <path class="cls-3" d="m0,92.74h40.55v5.54H0v-5.54Z"/>
  <path class="cls-3" d="m0,103.81h43.67v5.54H0v-5.54Z"/>
  <path class="cls-4" d="m110.18,59.53h49.82v66.42h-49.82V59.53Z"/>
  <path class="cls-3" d="m110.18,17.31h49.82v33.21h-49.82V17.31Z"/>
  <path class="cls-1" d="m110.18,67.83h43.67v5.54h-43.67v-5.54Z"/>
  <path class="cls-1" d="m110.18,78.9h26.51v5.54h-26.51v-5.54Z"/>
  <path class="cls-3" d="m110.18,92.74h40.55v5.54h-40.55v-5.54Z"/>
  <path class="cls-3" d="m110.18,103.81h43.67v5.54h-43.67v-5.54Z"/>
  <path class="cls-3" d="m110.18,114.88h21.84v5.54h-21.84v-5.54Z"/>
  <path class="cls-2" d="m0,56.76h21.84v5.54H0v-5.54Z"/>
  <path class="cls-2" d="m55.09,56.76h21.84v5.54h-21.84v-5.54Z"/>
  <path class="cls-2" d="m110.18,56.76h21.84v5.54h-21.84v-5.54Z"/>
  <path class="cls-3" d="m0,0h31.27v8.31H0V0Z"/>
  <path class="cls-1" d="m0,131.49h26.51v8.21H0v-8.21Z"/>
</svg>