<svg xmlns="http://www.w3.org/2000/svg" xml:space="preserve" viewBox="0 0 160 160">
  <path fill="#727272" d="m62 22 7.1-17.1 11.7 14.4 12-14.1 6.7 17.3 15.8-9.7 1 18.5 18.1-4.3-4.8 17.9 18.5 1.5L138 62l17.1 7.1-14.4 11.7 14.1 12-17.3 6.7 9.7 15.8-18.5 1 4.3 18.1-17.9-4.8-1.5 18.5L98 138l-7.1 17.1-11.7-14.4-12 14.1-6.7-17.3-15.8 9.7-1-18.5-18.1 4.3 4.8-17.9-18.5-1.5L22 98 4.9 90.9l14.4-11.7-14.1-12 17.3-6.7-9.7-15.8 18.5-1L27 25.6l17.9 4.8 1.5-18.5z"/>
  <text fill="#fff" font-family="Roboto-Black" font-size="40.84" transform="rotate(-17.28 376.9 -68.97)">NEW!</text>
</svg>
