<svg width="134" height="34" viewBox="0 0 134 34" fill="none" xmlns="http://www.w3.org/2000/svg">
<path d="M16.8023 17.6036C16.1684 18.9226 15.3241 20.0312 14.2746 20.9292C13.2251 21.8246 12.0204 22.5094 10.6658 22.9731C9.30859 23.4368 7.89875 23.6713 6.43105 23.6713H0V2.45959H6.43105C7.89612 2.45959 9.30859 2.69143 10.6658 3.15777C12.0204 3.62411 13.2251 4.30363 14.2746 5.20166C15.3241 6.09969 16.1684 7.20824 16.8023 8.52731C17.4362 9.84638 17.7544 11.36 17.7544 13.0654C17.7544 14.7736 17.4362 16.2845 16.8023 17.6036ZM13.8485 9.55858C13.3908 8.57261 12.77 7.75719 11.9941 7.11498C11.2182 6.47276 10.3028 5.99044 9.25335 5.668C8.20387 5.34556 7.08599 5.18567 5.905 5.18567H3.18265V20.9452H5.90763C7.08862 20.9452 8.20387 20.7907 9.25598 20.4789C10.3055 20.1698 11.2182 19.6874 11.9967 19.0319C12.7727 18.379 13.3908 17.5583 13.8511 16.5723C14.3114 15.5863 14.5402 14.4165 14.5402 13.0654C14.5376 11.7144 14.3088 10.5446 13.8485 9.55858Z" fill="#334F8A"/>
<path d="M39.1256 21.2623C38.8968 21.8059 38.5575 22.2829 38.1077 22.6906C37.6606 23.101 37.095 23.4288 36.4164 23.6713C35.7378 23.9138 34.9514 24.0363 34.0544 24.0363C33.1785 24.0363 32.3737 23.9298 31.6425 23.7192C30.9086 23.5087 30.3247 23.2476 29.8854 22.9385L29.1963 19.6128C29.8091 20.1458 30.5535 20.5881 31.4294 20.9425C32.3053 21.2969 33.2022 21.4755 34.1202 21.4755C34.8198 21.4755 35.388 21.3049 35.8272 20.9585C36.2639 20.6148 36.4848 20.1884 36.4848 19.6794C36.4848 19.1491 36.3033 18.7094 35.943 18.3657C35.5826 18.0219 35.0513 17.7288 34.3517 17.4836C32.8629 16.9294 31.7266 16.2765 30.9375 15.5224C30.1511 14.7682 29.7565 13.7823 29.7565 12.5644C29.7565 11.9436 29.8775 11.368 30.1169 10.835C30.3562 10.3047 30.6956 9.8437 31.1348 9.45464C31.5714 9.06825 32.0975 8.76713 32.7104 8.55661C33.3232 8.34609 33.9992 8.2395 34.7436 8.2395C35.5984 8.2395 36.3849 8.35675 37.1056 8.58859C37.8263 8.82043 38.3313 9.02561 38.6153 9.20415L38.0577 11.7304C37.7289 11.4852 37.2923 11.264 36.7452 11.0642C36.1981 10.8643 35.5195 10.7657 34.7094 10.7657C34.0755 10.7657 33.5705 10.9203 33.1996 11.2321C32.8287 11.5438 32.642 11.9515 32.642 12.4632C32.642 12.9508 32.8156 13.3399 33.168 13.6277C33.5179 13.9155 34.065 14.1926 34.8093 14.4591C36.2981 15.0134 37.4449 15.6743 38.255 16.4364C39.0651 17.2012 39.4702 18.2378 39.4702 19.5462C39.4702 20.1484 39.3545 20.7187 39.1256 21.2623Z" fill="#334F8A"/>
<path d="M53.1767 12.0342C52.4981 11.5785 51.8432 11.2694 51.2066 11.1095C50.5727 10.9496 49.8941 10.8697 49.1708 10.8697C48.4922 10.8697 47.8372 10.9922 47.2033 11.2374C46.5694 11.4826 46.0118 11.8343 45.5305 12.2927C45.0491 12.751 44.6598 13.3026 44.3653 13.9475C44.0707 14.595 43.9234 15.3305 43.9234 16.1566C43.9234 16.9614 44.0707 17.6915 44.3653 18.3497C44.6598 19.0079 45.0544 19.5595 45.5463 20.0046C46.0381 20.4522 46.6063 20.796 47.2533 21.0438C47.8977 21.289 48.5606 21.4116 49.2392 21.4116C49.9388 21.4116 50.6174 21.3316 51.275 21.1717C51.9326 21.0118 52.6743 20.7267 53.5055 20.3137L52.8821 23.2716C51.7669 23.7806 50.4649 24.0364 48.9761 24.0364C47.9477 24.0364 46.9535 23.8578 45.9908 23.5034C45.0281 23.149 44.1732 22.6267 43.4236 21.9419C42.6766 21.2543 42.0743 20.4283 41.6192 19.4663C41.1642 18.5016 40.938 17.3984 40.938 16.1566C40.938 14.9148 41.1642 13.8063 41.6192 12.8309C42.0743 11.8556 42.6766 11.0242 43.4236 10.3367C44.1732 9.64919 45.0281 9.12956 45.9908 8.77514C46.9535 8.42073 47.9477 8.24219 48.9761 8.24219C49.9599 8.24219 50.841 8.34078 51.617 8.54064C52.3929 8.7405 53.0978 9.01764 53.7343 9.37206L53.1767 12.0342Z" fill="#334F8A"/>
<path d="M59.6286 24.2709C59.3866 24.2043 59.0973 24.087 58.758 23.9218C58.4187 23.7566 58.0952 23.5114 57.79 23.189C57.4849 22.8692 57.2219 22.4588 57.0036 21.9578C56.7853 21.4595 56.6748 20.844 56.6748 20.1138V0H59.6628V19.7141C59.6628 20.4229 59.8811 20.9958 60.3204 21.4249C60.757 21.8566 61.2068 22.1177 61.6671 22.2057L59.6286 24.2709Z" fill="#334F8A"/>
<path d="M78.5008 19.3676C78.0957 20.3323 77.5381 21.1584 76.8279 21.8432C76.1151 22.5307 75.2866 23.069 74.3344 23.4554C73.3822 23.8445 72.3485 24.039 71.2333 24.039C70.1181 24.039 69.0791 23.8445 68.1164 23.4554C67.1537 23.069 66.3173 22.5307 65.6071 21.8432C64.8943 21.1557 64.3367 20.3296 63.9343 19.3676C63.5292 18.403 63.3267 17.3344 63.3267 16.1592C63.3267 14.9841 63.5292 13.9155 63.9343 12.9508C64.3393 11.9862 64.8969 11.1548 65.6071 10.4566C66.3173 9.75843 67.1537 9.21481 68.1164 8.82842C69.0791 8.44203 70.1181 8.2475 71.2333 8.2475C72.3512 8.2475 73.3849 8.44203 74.3344 8.82842C75.2866 9.21748 76.1177 9.75843 76.8279 10.4566C77.5381 11.1548 78.0957 11.9862 78.5008 12.9508C78.9059 13.9155 79.1084 14.9841 79.1084 16.1592C79.1084 17.3344 78.9059 18.4003 78.5008 19.3676ZM75.7258 13.9848C75.4602 13.3372 75.1025 12.7856 74.6527 12.3273C74.2003 11.8716 73.6821 11.5145 73.0982 11.256C72.5169 11.0002 71.8935 10.8723 71.2307 10.8723C70.5705 10.8723 69.9418 11.0002 69.3474 11.256C68.7529 11.5119 68.2295 11.8689 67.7797 12.3273C67.3273 12.7856 66.9696 13.3372 66.7066 13.9848C66.4409 14.6323 66.3094 15.3571 66.3094 16.1592C66.3094 16.94 66.4409 17.6542 66.7066 18.2991C66.9696 18.9466 67.33 19.4982 67.7797 19.9566C68.2295 20.4122 68.7529 20.772 69.3474 21.0278C69.9418 21.2836 70.5705 21.4115 71.2307 21.4115C71.8909 21.4115 72.5143 21.2836 73.0982 21.0278C73.6821 20.772 74.2003 20.4149 74.6527 19.9566C75.1025 19.4982 75.4602 18.9466 75.7258 18.2991C75.9889 17.6542 76.123 16.94 76.123 16.1592C76.123 15.3571 75.9889 14.6297 75.7258 13.9848Z" fill="#334F8A"/>
<path d="M90.8737 21.2623C90.6448 21.8059 90.3055 22.2829 89.8558 22.6906C89.406 23.101 88.8431 23.4288 88.1645 23.6713C87.4859 23.9138 86.6968 24.0363 85.7999 24.0363C84.924 24.0363 84.1217 23.9298 83.3879 23.7192C82.654 23.5087 82.0701 23.2476 81.6335 22.9385L80.9443 19.6128C81.5572 20.1458 82.3016 20.5881 83.1775 20.9425C84.0507 21.2969 84.9476 21.4755 85.8682 21.4755C86.5679 21.4755 87.136 21.3049 87.5753 20.9585C88.0119 20.6148 88.2329 20.1884 88.2329 19.6794C88.2329 19.1491 88.054 18.7094 87.691 18.3657C87.3307 18.0219 86.7994 17.7288 86.0997 17.4836C84.611 16.9294 83.4747 16.2765 82.6882 15.5224C81.8991 14.7682 81.5046 13.7823 81.5046 12.5644C81.5046 11.9436 81.6256 11.368 81.8649 10.835C82.1069 10.3047 82.4462 9.8437 82.8829 9.45464C83.3195 9.06825 83.8455 8.76713 84.4584 8.55661C85.0713 8.34609 85.7499 8.2395 86.4942 8.2395C87.3465 8.2395 88.1356 8.35675 88.8563 8.58859C89.5796 8.82043 90.082 9.02561 90.366 9.20415L89.8084 11.7304C89.4823 11.4852 89.043 11.264 88.4959 11.0642C87.9488 10.8643 87.2702 10.7657 86.4627 10.7657C85.8262 10.7657 85.3238 10.9203 84.9529 11.2321C84.582 11.5438 84.3953 11.9515 84.3953 12.4632C84.3953 12.9508 84.5689 13.3399 84.9187 13.6277C85.2685 13.9155 85.8156 14.1926 86.56 14.4591C88.0461 15.0134 89.1956 15.6743 90.0057 16.4364C90.8158 17.2012 91.2209 18.2378 91.2209 19.5462C91.2182 20.1484 91.1025 20.7187 90.8737 21.2623Z" fill="#334F8A"/>
<path d="M104.541 23.6473L104.409 22.1524C103.839 22.8052 103.221 23.2822 102.555 23.5834C101.887 23.8871 100.974 24.039 99.8143 24.039C99.0042 24.039 98.2546 23.9111 97.5681 23.6553C96.8789 23.4021 96.2819 23.0397 95.7795 22.5761C95.2745 22.1097 94.8825 21.5395 94.5985 20.8626C94.3118 20.1858 94.1724 19.4263 94.1724 18.5842V8.60992H97.1577V18.2591C97.1577 18.6562 97.2182 19.0452 97.3392 19.4183C97.4576 19.794 97.6628 20.1325 97.9468 20.4309C98.2309 20.7294 98.586 20.9692 99.0121 21.1424C99.4382 21.321 99.9695 21.4089 100.603 21.4089C101.195 21.4089 101.713 21.321 102.163 21.1424C102.61 20.9665 102.984 20.7294 103.278 20.4309C103.576 20.1325 103.799 19.7967 103.952 19.4183C104.104 19.0426 104.183 18.6562 104.183 18.2591V8.60992H107.171V23.6473H104.541V23.6473Z" fill="#334F8A"/>
<path d="M118.66 10.9709C118.068 10.9709 117.456 11.0589 116.822 11.2374C116.188 11.4159 115.62 11.7197 115.115 12.1514C114.612 12.5831 114.197 13.1614 113.868 13.8809C113.539 14.6004 113.376 15.4931 113.376 16.5563V23.6713H110.391V8.60992H113.213L113.344 10.9709C113.739 10.0409 114.399 9.38005 115.33 8.99365C116.259 8.60459 117.282 8.41006 118.397 8.41006L118.955 10.9709H118.66Z" fill="#334F8A"/>
<path d="M133.903 15.2106L132.227 16.9107H123.268C123.289 17.3771 123.416 17.87 123.647 18.395C123.876 18.9173 124.21 19.405 124.649 19.8606C125.086 20.3163 125.628 20.6894 126.275 20.9772C126.922 21.2676 127.682 21.4115 128.558 21.4115C129.52 21.4115 130.381 21.281 131.135 21.0198C131.89 20.7587 132.619 20.3696 133.321 19.8473L132.566 23.0717C132.04 23.3595 131.427 23.594 130.728 23.7699C130.025 23.9458 129.173 24.0364 128.166 24.0364C127.114 24.0364 126.106 23.8472 125.144 23.4714C124.181 23.0957 123.331 22.5574 122.6 21.8592C121.866 21.1611 121.28 20.3296 120.843 19.365C120.404 18.4003 120.186 17.3318 120.186 16.1566C120.186 14.8722 120.409 13.7343 120.859 12.7483C121.306 11.7624 121.882 10.9363 122.582 10.2727C123.281 9.60655 124.073 9.1029 124.96 8.75915C125.846 8.41539 126.714 8.24484 127.569 8.24484C128.597 8.24484 129.51 8.41272 130.31 8.74582C131.109 9.07892 131.782 9.51861 132.33 10.0622C132.877 10.6058 133.292 11.2241 133.576 11.9116C133.86 12.5991 134.002 13.2893 134.002 13.9795C134 14.4671 133.966 14.8775 133.903 15.2106ZM130.783 12.9322C130.63 12.5565 130.409 12.2127 130.123 11.9009C129.839 11.5918 129.492 11.3413 129.084 11.1521C128.676 10.9629 128.232 10.8697 127.748 10.8697C127.287 10.8697 126.819 10.9603 126.346 11.1361C125.872 11.3147 125.438 11.5625 125.044 11.8849C124.649 12.2074 124.307 12.5831 124.021 13.0148C123.736 13.4465 123.55 13.9288 123.46 14.4591H130.975C130.996 14.3712 131.009 14.2379 131.009 14.0594C131.014 13.6863 130.936 13.3106 130.783 12.9322Z" fill="#334F8A"/>
<path d="M84.7187 30.7898C84.5635 30.6326 84.3768 30.4914 84.1611 30.3688C83.948 30.2489 83.7113 30.1449 83.4535 30.057C82.9143 29.8705 82.6381 29.62 82.6381 29.3109C82.6381 29.143 82.7039 29.0017 82.838 28.8738C82.9748 28.7433 83.1642 28.682 83.4167 28.682C83.6298 28.682 83.8297 28.7166 84.0138 28.7859C84.2005 28.8552 84.3426 28.9245 84.4346 28.9884L84.6266 29.1243L84.8765 28.0691L84.7923 28.0051C84.674 27.9145 84.5004 27.8346 84.261 27.7573C83.7718 27.6001 83.0721 27.6027 82.6013 27.7839C82.3567 27.8772 82.1489 28.0078 81.9832 28.1677C81.8175 28.3302 81.6939 28.5194 81.6097 28.7299C81.5282 28.9378 81.4861 29.1563 81.4861 29.3748C81.4861 29.8145 81.6334 30.1982 81.9201 30.5153C82.1989 30.8218 82.6118 31.0669 83.1484 31.2455C83.4667 31.3521 83.6981 31.48 83.8376 31.6292C83.9664 31.7705 84.0296 31.941 84.0296 32.1542C84.0296 32.378 83.9533 32.5512 83.8007 32.6845C83.4746 32.9643 82.8196 32.935 82.3041 32.7511C82.0384 32.6578 81.7728 32.5139 81.5124 32.3301L81.1836 32.0982L81.4756 33.5212L81.5282 33.5585C81.6912 33.6704 81.9122 33.769 82.191 33.8516C82.4672 33.9343 82.7723 33.9769 83.0958 33.9769C83.4351 33.9769 83.7376 33.9316 83.998 33.841C84.2637 33.7504 84.4899 33.6171 84.6714 33.4493C84.8555 33.2787 84.9975 33.0735 85.0896 32.8417C85.179 32.6125 85.2263 32.354 85.2263 32.0742C85.2263 31.8131 85.1816 31.5706 85.0948 31.3574C85.0054 31.1442 84.8791 30.9524 84.7187 30.7898Z" fill="#5FB2A2"/>
<path d="M91.4837 32.8035C91.026 32.9181 90.3895 32.9607 89.8213 32.7662C89.5662 32.6783 89.3347 32.5477 89.1322 32.3771C88.9323 32.2093 88.7718 31.9934 88.6508 31.7323C88.5298 31.4738 88.4694 31.1647 88.4694 30.8156C88.4694 30.4612 88.5325 30.1494 88.6561 29.8909C88.7797 29.6324 88.9428 29.4139 89.1427 29.246C89.3426 29.0755 89.5767 28.9449 89.8318 28.857C90.2238 28.7237 90.642 28.6944 91.0207 28.7584C91.1549 28.7823 91.2838 28.8117 91.4048 28.8463C91.5231 28.8809 91.6283 28.9183 91.7257 28.9609C91.8203 29.0035 91.9019 29.0435 91.9676 29.0835L92.1596 29.1981L92.378 28.1028L92.2806 28.0442C92.0939 27.9323 91.8598 27.8417 91.5652 27.7617C91.0076 27.6098 90.1711 27.5672 89.3821 27.8417C89.0007 27.9749 88.6508 28.1748 88.3431 28.4386C88.0327 28.7024 87.775 29.0355 87.5777 29.4272C87.3778 29.8243 87.2778 30.2906 87.2778 30.8156C87.2778 31.3352 87.3778 31.7989 87.5724 32.1933C87.7671 32.585 88.0222 32.9181 88.3352 33.1846C88.6429 33.4457 88.9954 33.6482 89.3794 33.7815C89.7608 33.9147 90.1448 33.9813 90.5183 33.9813C90.9024 33.9813 91.2048 33.9574 91.4416 33.9094C91.6809 33.8614 91.8992 33.7841 92.0886 33.6802L92.1544 33.6456L92.4253 32.3665L92.1123 32.5583C91.944 32.6569 91.7335 32.7422 91.4837 32.8035Z" fill="#5FB2A2"/>
<path d="M98.9195 28.4866C98.6222 28.2174 98.2803 28.0069 97.9015 27.8603C97.144 27.5699 96.3128 27.5699 95.558 27.8603C95.1792 28.0069 94.8373 28.2174 94.54 28.4866C94.2402 28.7584 93.9982 29.0941 93.8167 29.4805C93.6326 29.8722 93.5405 30.3173 93.5405 30.8076C93.5405 31.3032 93.6326 31.7509 93.8167 32.1426C93.9982 32.5317 94.2402 32.8675 94.54 33.1366C94.8373 33.4058 95.1792 33.6163 95.558 33.7628C95.9367 33.9067 96.3313 33.9813 96.7311 33.9813C97.1309 33.9813 97.5254 33.9067 97.9042 33.7628C98.2803 33.6163 98.6249 33.4058 98.9221 33.1366C99.2193 32.8648 99.4639 32.5317 99.6454 32.1426C99.8269 31.7509 99.919 31.3006 99.919 30.8076C99.919 30.3199 99.8269 29.8722 99.6454 29.4805C99.4613 29.0915 99.2193 28.7584 98.9195 28.4866ZM98.7222 30.8076C98.7222 31.1407 98.6643 31.4391 98.5486 31.6976C98.4329 31.9561 98.2777 32.1773 98.0883 32.3532C97.8963 32.529 97.6806 32.6649 97.4439 32.7582C96.9652 32.9447 96.4759 32.9394 96.0077 32.7582C95.771 32.6676 95.5553 32.5317 95.3686 32.3558C95.1818 32.1826 95.0293 31.9614 94.9109 31.7003C94.7952 31.4418 94.7373 31.1407 94.7373 30.8103C94.7373 30.4772 94.7952 30.1787 94.9109 29.9229C95.0266 29.6644 95.1818 29.4459 95.3686 29.27C95.5553 29.0941 95.7684 28.9582 96.0077 28.8676C96.2445 28.7744 96.4891 28.7291 96.7311 28.7291C96.9678 28.7291 97.2071 28.7744 97.4439 28.8676C97.6806 28.9609 97.8989 29.0968 98.0883 29.2727C98.2777 29.4485 98.4302 29.6671 98.5486 29.9229C98.6643 30.1787 98.7222 30.4772 98.7222 30.8076Z" fill="#5FB2A2"/>
<path d="M101.416 28.8356H103.255V33.8747H104.449V28.8356H106.287V27.7617H101.416V28.8356Z" fill="#5FB2A2"/>
<path d="M112.108 32.7982V33.8721H108.394V27.7591H109.588V32.7982H112.108Z" fill="#5FB2A2"/>
<path d="M125.259 31.3352C125.259 31.4231 125.259 31.5111 125.262 31.5963L125.249 31.5804C125.143 31.4551 125.036 31.3325 124.928 31.2099C124.823 31.09 124.717 30.9728 124.617 30.8529C124.515 30.733 124.42 30.6264 124.336 30.5384L121.84 27.7617H121.011V33.8747H122.208V30.1201C122.208 30.0108 122.208 29.8989 122.205 29.7816C122.324 29.9202 122.445 30.0668 122.574 30.216C122.808 30.4905 123.031 30.7463 123.247 30.9808L125.967 34H126.456V27.7617H125.262V31.3352H125.259Z" fill="#5FB2A2"/>
<path d="M133.666 29.5072C133.484 29.1288 133.237 28.8063 132.934 28.5478C132.635 28.292 132.285 28.0948 131.898 27.9589C131.514 27.8257 131.106 27.7591 130.691 27.7591H128.776V33.8721H130.691C131.106 33.8721 131.511 33.8055 131.898 33.6722C132.287 33.539 132.635 33.3418 132.934 33.086C133.237 32.8275 133.481 32.505 133.666 32.1266C133.85 31.7456 133.942 31.3059 133.942 30.8156C133.942 30.3253 133.847 29.8882 133.666 29.5072ZM129.962 28.8276H130.546C130.851 28.8276 131.143 28.8703 131.414 28.9529C131.68 29.0328 131.914 29.1581 132.108 29.318C132.3 29.4779 132.456 29.683 132.571 29.9282C132.687 30.1734 132.745 30.4718 132.745 30.8156C132.745 31.1593 132.687 31.4578 132.571 31.7056C132.458 31.9508 132.3 32.1586 132.108 32.3212C131.914 32.4864 131.68 32.6063 131.417 32.6863C131.146 32.7662 130.854 32.8062 130.546 32.8062H129.962V28.8276Z" fill="#5FB2A2"/>
<path d="M116.38 27.6818H115.859L113.589 33.1499L113.378 33.6456L113.289 33.8721H114.483L115.099 32.3771H117.108L117.724 33.8721H118.952L116.38 27.6818ZM115.527 31.3539L115.998 30.1627C116.035 30.0854 116.069 29.9948 116.106 29.8989C116.143 29.9948 116.177 30.0854 116.209 30.1627L116.685 31.3539H115.527Z" fill="#5FB2A2"/>
<path d="M25.9189 3.83462C25.9189 5.06309 24.9352 6.05972 23.7227 6.05972C22.5101 6.05972 21.5264 5.06309 21.5264 3.83462C21.5264 2.60616 22.5101 1.60953 23.7227 1.60953C24.9352 1.60953 25.9189 2.60616 25.9189 3.83462Z" fill="#5FB2A2"/>
<path d="M23.7226 6.95242C21.7814 6.95242 20.2085 8.54597 20.2085 10.5126V15.6316C20.2085 16.7508 20.7293 17.7368 21.5263 18.3923V21.8646C21.5263 23.093 22.51 24.0897 23.7226 24.0897C24.9351 24.0897 25.9188 23.093 25.9188 21.8646V18.3923C26.7158 17.7368 27.2366 16.7508 27.2366 15.6316V10.5126C27.2366 8.54597 25.6637 6.95242 23.7226 6.95242Z" fill="#5FB2A2"/>
</svg>
