<?xml version="1.0" encoding="UTF-8"?>
<svg id="svg1" xmlns="http://www.w3.org/2000/svg" viewBox="0 0 113 40">
  <defs>
    <style>
      .cls-1 {
        fill: #193762;
      }
    </style>
  </defs>
  <g id="layer-MC1">
    <path id="path1" class="cls-1" d="M3.62,4.9h2.08c3.62,0,7.48,1.75,7.48,6.65s-3.86,6.65-7.48,6.65h-2.08s0-13.29,0-13.29ZM13.06,4.73c-1.81-1.53-4.29-2.38-6.97-2.38H.74v18.32h5.35c2.68,0,5.16-.84,6.97-2.38,1.98-1.67,3.03-4.02,3.03-6.78s-1.05-5.11-3.03-6.78"/>
    <path id="path3" class="cls-1" d="M29.17,12.62c-1.37-.5-1.82-.9-1.82-1.65s.67-1.33,1.66-1.33,2.17.49,2.56.78l.34.26.6-2.37-.18-.11c-.56-.34-1.9-.85-3.29-.85-2.51,0-4.27,1.52-4.27,3.71s1.16,3.2,3.89,4.16c1.33.48,1.9,1.03,1.9,1.85s-.82,1.47-2,1.47-2.61-.51-3.6-1.37l-.56-.5.39,3.09.1.07c.97.68,2.2,1.03,3.64,1.03,2.78,0,4.65-1.56,4.65-3.87,0-2.59-2.15-3.69-4.03-4.36"/>
    <path id="path5" class="cls-1" d="M41.36,9.74c1.16,0,2.22.31,3.24.96l.34.21.55-2.5-.18-.1c-1.16-.64-2.57-.98-4.09-.98-3.97,0-6.96,2.91-6.96,6.77s3.59,6.74,6.96,6.74,2.51-.23,3.46-.69l.14-.07.3-2.61-.48.25c-1.09.57-2.03.8-3.26.8-2.56,0-4.5-1.89-4.5-4.39s1.92-4.39,4.47-4.39"/>
    <path id="path7" class="cls-1" d="M50.33,17.25V.3h-2.71v17.23c0,2.71,1.95,3.45,2.55,3.61l.16.04,1.97-1.97-.52-.1c-.71-.14-1.44-.83-1.44-1.86"/>
    <path id="path9" class="cls-1" d="M59.95,18.55c-2.41,0-4.22-1.89-4.22-4.39s1.82-4.45,4.22-4.45,4.2,1.91,4.2,4.45-1.8,4.39-4.2,4.39M59.95,7.2c-3.97,0-6.96,2.97-6.96,6.91s2.99,6.88,6.96,6.88,6.93-2.96,6.93-6.88-2.92-6.91-6.93-6.91"/>
    <path id="path11" class="cls-1" d="M72.93,12.62c-1.37-.5-1.82-.9-1.82-1.65s.67-1.33,1.66-1.33,2.17.49,2.56.78l.34.26.6-2.37-.18-.11c-.56-.34-1.9-.85-3.29-.85-2.51,0-4.27,1.52-4.27,3.71s1.16,3.2,3.89,4.16c1.33.48,1.9,1.03,1.9,1.85s-.82,1.47-2,1.47-2.61-.51-3.6-1.37l-.56-.5.39,3.09.1.07c.97.68,2.2,1.03,3.64,1.03,2.78,0,4.65-1.56,4.65-3.87s-2.15-3.69-4.03-4.36"/>
    <path id="path13" class="cls-1" d="M87.63,16c0,1.5-1.24,2.55-3.03,2.55s-2.91-1.32-2.91-2.55V7.51h-2.71v8.69c0,2.82,2.1,4.79,5.1,4.79s3.12-.69,3.72-1.39v1.08h2.55V7.51h-2.71v8.49h0Z"/>
    <path id="path15" class="cls-1" d="M100.42,7.52c-.37-.13-.99-.18-1.32-.18-1.54,0-2.8.68-3.53,1.84v-1.67h-2.63v13.18h2.63v-6.68c0-3.54,2.31-3.92,3.31-3.92s.63.07.88.13l.28.07.63-2.67-.24-.08h0Z"/>
    <path id="path17" class="cls-1" d="M103.15,12.49c.45-1.65,2.02-2.94,3.65-2.94s2.94,1.44,2.94,2.83,0,.07,0,.1h-6.6ZM106.69,7.2c-3.16,0-6.43,2.58-6.43,6.91s3.07,6.88,6.99,6.88,2.74-.3,3.81-.9l.13-.07.35-2.81-.52.36c-.98.69-2.17,1.03-3.51,1.03-2.72,0-4.4-1.93-4.55-3.88h8.03l1.31-1.34.02-.08c.06-.27.09-.6.09-.98,0-2.48-2-5.13-5.71-5.13"/>
    <path id="path19" class="cls-1" d="M20.63,5.91h-.23c-1.32,0-2.41,1.09-2.41,2.41v4.85c0,.68.29,1.31.75,1.74v4.12c0,.98.8,1.77,1.77,1.77s1.77-.8,1.77-1.77v-4.12c.46-.44.75-1.06.75-1.74v-4.85c0-1.32-1.09-2.41-2.41-2.41"/>
    <path id="path21" class="cls-1" d="M22.42,3.26c0,1.06-.86,1.91-1.91,1.91s-1.91-.86-1.91-1.91.86-1.91,1.91-1.91,1.91.86,1.91,1.91"/>
    <path id="path23" class="cls-1" d="M5.06,26.16c1.29,0,2.52.32,3.71.96v2.27c-1.37-.83-2.58-1.24-3.64-1.24s-1.14.12-1.5.37c-.36.25-.54.58-.54,1s.34.96,1.01,1.38c.19.13.92.48,2.18,1.06,1.08.51,1.86,1.08,2.34,1.7s.72,1.37.72,2.25-.41,2.05-1.22,2.74c-.81.69-1.87,1.04-3.17,1.04s-1.57-.09-2.18-.28c-.61-.18-1.29-.51-2.05-.96v-2.51c1.41,1.17,2.74,1.76,3.98,1.76s1.13-.13,1.51-.41c.38-.27.58-.63.58-1.07s-.33-1.11-1-1.49c-.55-.3-1.27-.66-2.14-1.09-1.04-.47-1.82-1.03-2.33-1.65-.51-.63-.77-1.36-.77-2.19s.41-1.99,1.24-2.65c.83-.66,1.92-.99,3.27-.99"/>
    <path id="path25" class="cls-1" d="M19.12,26.16c.75,0,1.48.08,2.2.25.72.17,1.49.46,2.32.87v2.4c-.81-.46-1.56-.8-2.25-1.01-.69-.21-1.41-.31-2.16-.31s-1.79.19-2.54.58-1.34.93-1.76,1.64-.63,1.49-.63,2.35.21,1.67.62,2.37,1,1.24,1.76,1.62c.76.38,1.6.57,2.55.57s1.42-.1,2.07-.31c.66-.21,1.49-.58,2.49-1.12v2.4c-.86.45-1.64.76-2.36.96-.72.19-1.55.28-2.51.28-1.39,0-2.63-.28-3.73-.83-1.09-.55-1.96-1.35-2.58-2.4-.63-1.04-.94-2.18-.94-3.42s.32-2.52.97-3.58c.64-1.06,1.53-1.87,2.66-2.45,1.13-.57,2.4-.86,3.82-.86"/>
    <path id="path27" class="cls-1" d="M28.77,32.93c0,.88.2,1.66.6,2.36s.95,1.24,1.66,1.62c.71.38,1.51.58,2.4.58,1.36,0,2.47-.43,3.34-1.27.87-.85,1.31-1.95,1.31-3.29s-.2-1.66-.59-2.36-.95-1.24-1.66-1.63-1.52-.58-2.41-.58-1.7.19-2.41.58c-.71.39-1.26.93-1.65,1.62s-.58,1.49-.58,2.36M33.42,26.16c1.37,0,2.6.28,3.69.84s1.96,1.37,2.61,2.44c.65,1.06.97,2.22.97,3.49s-.31,2.38-.95,3.43c-.63,1.06-1.5,1.87-2.61,2.46-1.11.58-2.35.88-3.74.88s-2.61-.3-3.73-.89c-1.12-.59-1.99-1.41-2.61-2.44s-.94-2.18-.94-3.43.31-2.35.94-3.41c.62-1.06,1.48-1.89,2.58-2.48,1.09-.59,2.35-.88,3.78-.88"/>
    <path id="path29" class="cls-1" d="M54.05,26.33v1.99h-4.68v11.2h-2.55v-11.2h-4.68v-1.99h11.92,0Z"/>
    <path id="path31" class="cls-1" d="M59.09,26.33v11.2h6.4v1.99h-8.95v-13.19h2.55,0Z"/>
    <path id="path33" class="cls-1" d="M72.01,34.38h4.26l-2.23-5.22-2.03,5.22h0ZM75.34,26.33l5.83,13.19h-2.69l-1.37-3.21h-5.87l-1.27,3.21h-2.67l5.44-13.19h2.61,0Z"/>
    <path id="path35" class="cls-1" d="M85.72,26.33l7.84,9.21v-9.21h2.49v13.19h-2.19l-7.89-9.36v9.36h-2.49v-13.19h2.24Z"/>
    <path id="path37" class="cls-1" d="M105.13,37.53c1.41,0,2.54-.42,3.4-1.27.85-.85,1.28-1.96,1.28-3.33s-.43-2.55-1.29-3.37c-.86-.83-2.02-1.24-3.47-1.24h-2.63v9.21h2.71,0ZM105.39,26.33c1.37,0,2.6.28,3.67.84,1.07.56,1.9,1.35,2.49,2.36s.89,2.15.89,3.42-.3,2.43-.89,3.43-1.44,1.77-2.54,2.32c-1.09.55-2.35.82-3.77.82h-5.37v-13.19h5.53Z"/>
  </g>
</svg>