<svg height="125.27" viewBox="0 0 283.5 125.27" width="283.5" xmlns="http://www.w3.org/2000/svg"><path d="m283.5 33.23h-3.1l-4.4 12.1h-.1l-4.6-12.1h-3.4l6.4 15.6-1 2.4c-.1.4-.3.7-.5 1-.1.3-.3.6-.6.8s-.5.4-.8.5-.7.2-1.2.2c-.6 0-1.2-.1-1.8-.4l-.4 2.7c.4.2.8.3 1.3.3.4 0 .9.1 1.3.1.8 0 1.5-.1 2-.3.6-.2 1-.5 1.4-.9s.7-.9 1-1.4c.3-.6.5-1.2.8-1.8zm-18.7 15.7c.5-.1 1-.2 1.4-.4v-2.7c-.3.2-.6.3-1 .4s-.7.1-1.1.1c-.6 0-1-.1-1.3-.3s-.5-.5-.6-.8-.2-.7-.2-1.1v-8.3h4.2v-2.5h-4.2v-4.3h-2.9v4.3h-3.4v2.5h3.4v8.1c0 .6 0 1.3.1 1.9 0 .6.2 1.2.5 1.7s.8.9 1.4 1.2 1.5.5 2.6.5c.1-.2.5-.2 1.1-.3m-11.2-19.7c.4-.4.6-.9.6-1.5s-.2-1.1-.6-1.5-.9-.6-1.5-.6-1.1.2-1.5.6-.6.9-.6 1.5.2 1.1.6 1.5.9.6 1.5.6c.5 0 1-.2 1.5-.6m-5.5 7 .1-3.2c-.4-.1-.8-.2-1.3-.2s-1 .1-1.4.2c-.5.1-.9.3-1.3.6-.4.2-.8.5-1.1.9-.3.3-.6.7-.8 1.1h-.1v-2.4h-2.9v15.5h2.9v-7.8c0-1.7.4-3 1.1-3.8.8-.8 1.9-1.2 3.3-1.2.2 0 .5 0 .7.1.3 0 .6.1.8.2m-15.8 12.4h2.9v-15.4h-2.9v8c0 .9-.1 1.7-.3 2.3-.2.7-.5 1.2-.9 1.6s-.9.7-1.4.9-1.1.3-1.7.3c-.5 0-.9-.1-1.3-.2s-.8-.4-1.1-.7-.6-.7-.8-1.2-.3-1.1-.3-1.8v-9.1h-2.9v9.9c0 1 .1 1.9.5 2.7.3.8.7 1.4 1.2 1.8.5.5 1.1.8 1.8 1.1.7.2 1.4.3 2.2.3 1.2 0 2.3-.3 3.2-.8s1.6-1.2 1.9-2h.1zm-15.3-11.3 2.2-2c-.8-.8-1.7-1.4-2.7-1.8s-2.1-.6-3.2-.6c-1.2 0-2.3.2-3.3.6s-1.8 1-2.5 1.7-1.3 1.6-1.7 2.6-.6 2.1-.6 3.3.2 2.3.6 3.3 1 1.8 1.7 2.5 1.6 1.3 2.6 1.7 2.1.6 3.3.6c1.1 0 2.2-.2 3.2-.6s1.9-1 2.7-1.8l-2.1-2.1c-.5.6-1 1-1.6 1.3s-1.3.4-2.1.4-1.4-.1-2.1-.4c-.6-.3-1.1-.7-1.6-1.1-.4-.5-.8-1-1-1.7-.2-.6-.4-1.3-.4-2s.1-1.4.3-2.1.5-1.3.9-1.8.9-.9 1.5-1.2 1.3-.4 2.1-.4 1.5.2 2.1.4 1.2.6 1.7 1.2m-26.5 4.7h12.4v-1c0-1-.1-2-.4-3s-.7-1.8-1.3-2.6-1.4-1.4-2.3-1.9c-1-.5-2.1-.7-3.5-.7-1.2 0-2.2.2-3.2.6s-1.8 1-2.5 1.7-1.3 1.6-1.7 2.6-.6 2.1-.6 3.2.2 2.2.6 3.2.9 1.9 1.6 2.6 1.5 1.3 2.5 1.7 2.1.6 3.3.6c2.9 0 5.2-1.1 6.9-3.2l-2.2-1.7c-.6.7-1.2 1.3-1.9 1.7s-1.5.6-2.4.6c-.7 0-1.3-.1-2-.3s-1.2-.5-1.7-.9-.9-.9-1.2-1.4c-.2-.5-.4-1.1-.4-1.8m-0-2.3c0-.5.1-1.1.3-1.6s.6-1 1-1.5c.4-.4.9-.8 1.5-1.1s1.3-.4 2-.4 1.4.1 1.9.3c.6.2 1 .5 1.4 1 .4.4.7.9.8 1.4.2.5.3 1.1.3 1.8zm-.9 27.5c-1.2 0-2.3.2-3.2.6-1 .4-1.8 1-2.5 1.7s-1.2 1.6-1.6 2.6-.6 2.1-.6 3.2c0 1.2.2 2.2.6 3.2s.9 1.8 1.6 2.6c.7.7 1.5 1.3 2.5 1.7s2.1.6 3.2.6c1 0 2.1-.2 3.1-.7s1.8-1.1 2.3-1.9h.1v2.2h2.9v-24.6h-2.9v11.4h-.1c-.5-.8-1.3-1.4-2.3-1.9s-2-.7-3.1-.7m-1.7 3.2c.6-.3 1.3-.4 2.1-.4s1.5.1 2.1.4 1.2.6 1.6 1.1.8 1 1 1.7.4 1.4.4 2.2-.1 1.5-.4 2.2c-.2.7-.6 1.2-1 1.7s-1 .8-1.6 1.1-1.3.4-2.1.4-1.5-.1-2.1-.4-1.2-.6-1.6-1.1-.8-1-1-1.7-.4-1.4-.4-2.2.1-1.5.4-2.2c.2-.7.6-1.2 1-1.7s.9-.8 1.6-1.1m-13.4-36.7c-.6-.5-.9-1.3-.9-2.3 0-.4.1-.7.2-1.1s.4-.8.7-1.2c.4-.4.8-.7 1.4-.9s1.3-.3 2.2-.3 1.7.2 2.5.6c.7.4 1.3.9 1.7 1.5l2.5-2.3c-.9-1.1-1.9-1.8-3-2.1-1.2-.4-2.4-.5-3.6-.5-1.4 0-2.6.2-3.6.6s-1.8 1-2.4 1.6-1.1 1.3-1.4 2.1-.4 1.5-.4 2.2c0 1.5.3 2.7.9 3.6s1.3 1.6 2.1 2.1 1.8.9 2.7 1.2c1 .3 1.9.6 2.7.9s1.5.7 2.1 1.2.9 1.2.9 2c0 .6-.1 1.2-.4 1.7s-.7.9-1.1 1.2c-.5.3-.9.6-1.5.7-.5.2-1.1.2-1.6.2-.9 0-1.8-.2-2.7-.6s-1.6-1-2.2-1.9l-2.6 2.2c.8 1.1 1.8 1.9 3.2 2.4 1.3.5 2.7.8 4.2.8 1.1 0 2.2-.2 3.1-.5 1-.3 1.8-.8 2.5-1.4s1.3-1.4 1.7-2.3.6-1.9.6-3c0-1.4-.3-2.5-.9-3.3s-1.3-1.4-2.1-1.9-1.8-.8-2.7-1.1-1.9-.6-2.7-.9-1.5-.7-2.1-1.2m-4.5 34.3c-.9.5-1.6 1.2-1.9 2h-.1v-2.4h-2.9v15.5h2.9v-8c0-.9.1-1.7.3-2.3.2-.7.5-1.2.9-1.6s.9-.7 1.4-.9 1.1-.3 1.7-.3c.5 0 .9.1 1.3.2s.8.4 1.1.7.6.7.8 1.2.3 1.1.3 1.8v9.1h2.9v-9.9c0-1-.1-1.9-.5-2.7-.3-.8-.7-1.4-1.2-1.8-.5-.5-1.1-.8-1.8-1.1-.7-.2-1.4-.3-2.1-.3-1.2 0-2.2.3-3.1.8m-11.4 15.1h2.6c0-.4-.1-.9-.1-1.3v-9.4c0-.7-.1-1.3-.4-1.9s-.6-1.2-1.2-1.7c-.5-.5-1.2-.9-2-1.1-.8-.3-1.8-.4-2.9-.4s-2.2.2-3.3.6-2 1-2.9 1.7l1.8 1.8c.3-.2.5-.4.8-.6s.6-.4 1-.6.7-.3 1.2-.4c.4-.1.9-.2 1.5-.2s1.2.1 1.6.3c.5.2.8.4 1.1.8.3.3.5.7.7 1.1.1.4.2.8.2 1.2v.7h-2.2c-1.2 0-2.3.1-3.3.3s-1.9.5-2.7.9-1.4 1-1.8 1.7c-.5.7-.7 1.5-.7 2.5 0 .8.1 1.4.4 2s.7 1.1 1.2 1.5 1.1.7 1.7.9 1.3.3 2.1.3c1.2 0 2.2-.2 3.1-.6s1.7-1.1 2.3-2.1h.1c0 .4.1 1.2.1 2m-.2-6.5c0 .5-.1 1.1-.2 1.6s-.4 1-.8 1.5c-.4.4-.8.8-1.4 1.1s-1.3.4-2.1.4c-1 0-1.8-.2-2.4-.6s-.9-1-.9-1.9c0-.6.2-1.1.6-1.5s.9-.7 1.5-.9 1.3-.4 2-.4c.7-.1 1.4-.1 2.1-.1h1.6zm-4-27.9h2.9v-24.7h-2.9zm-6.6 0h2.6c0-.4-.1-.9-.1-1.3v-9.4c0-.7-.1-1.3-.4-1.9s-.6-1.2-1.2-1.7c-.5-.5-1.2-.9-2-1.1-.8-.3-1.8-.4-2.9-.4s-2.2.2-3.3.6-2 1-2.9 1.7l1.8 1.8c.3-.2.5-.4.8-.6s.6-.4 1-.6.7-.3 1.2-.4c.4-.1.9-.2 1.5-.2s1.2.1 1.6.3c.5.2.8.4 1.1.8.3.3.5.7.7 1.1.1.4.2.8.2 1.2v.7h-2.2c-1.2 0-2.3.1-3.3.3s-1.9.5-2.7.9-1.4 1-1.8 1.7-.7 1.5-.7 2.5c0 .8.1 1.4.4 2s.7 1.1 1.2 1.5 1.1.7 1.7.9c.7.2 1.3.3 2.1.3 1.2 0 2.2-.2 3.1-.6s1.7-1.1 2.3-2.1h.1c0 .4 0 1.2.1 2m-.3-6.5c0 .5-.1 1.1-.2 1.6s-.4 1-.8 1.5c-.4.4-.8.8-1.4 1.1s-1.3.4-2.1.4c-1 0-1.8-.2-2.4-.6s-.9-1-.9-1.9c0-.6.2-1.1.6-1.5s.9-.7 1.5-.9 1.3-.4 2-.4c.7-.1 1.4-.1 2.1-.1h1.6zm-8.6 25.4h-4.2v-4.3h-2.9v4.3h-3.4v2.5h3.4v8.1c0 .6 0 1.3.1 1.9s.2 1.2.5 1.7.8.9 1.4 1.2 1.5.5 2.6.5c.3 0 .7 0 1.3-.1s1-.2 1.4-.4v-2.7c-.3.2-.6.3-1 .4s-.7.1-1.1.1c-.6 0-1-.1-1.3-.3s-.5-.5-.7-.8c-.1-.3-.2-.7-.2-1.1v-8.3h4.2zm-4.9-34.4h-3v15.5h2.9v-15.5zm0-4c.4-.4.6-.9.6-1.5s-.2-1.1-.6-1.5-.9-.6-1.5-.6-1.1.2-1.5.6-.6.9-.6 1.5.2 1.1.6 1.5.9.6 1.5.6 1.1-.2 1.5-.6m-7.5 8.1 2.2-2c-.8-.8-1.7-1.4-2.7-1.8s-2.1-.6-3.2-.6c-1.2 0-2.3.2-3.3.6s-1.8 1-2.5 1.7-1.3 1.6-1.7 2.6-.6 2.1-.6 3.3.2 2.3.6 3.3.9 1.8 1.7 2.5c.7.7 1.6 1.3 2.6 1.7s2.1.6 3.3.6c1.1 0 2.2-.2 3.2-.6s1.9-1 2.7-1.8l-2.1-2.1c-.5.6-1 1-1.6 1.3s-1.3.4-2.1.4-1.4-.1-2.1-.4c-.6-.3-1.1-.7-1.6-1.1-.4-.5-.8-1-1-1.7-.2-.6-.4-1.3-.4-2s.1-1.4.3-2.1.5-1.3.9-1.8.9-.9 1.5-1.2 1.3-.4 2.1-.4 1.5.2 2.1.4 1.1.7 1.7 1.2m-10.5 30.6c-1 .4-1.9 1-2.6 1.7s-1.3 1.6-1.7 2.6-.6 2-.6 3.2c0 1.1.2 2.2.6 3.2s1 1.9 1.7 2.6 1.6 1.3 2.6 1.7 2.1.6 3.2.6c1.2 0 2.2-.2 3.2-.6s1.9-1 2.6-1.7 1.3-1.6 1.7-2.6.6-2.1.6-3.2-.2-2.2-.6-3.2-1-1.8-1.7-2.6c-.7-.7-1.6-1.3-2.6-1.7s-2.1-.6-3.2-.6c-1.1-.1-2.2.1-3.2.6m-.5 3.6c.4-.5 1-.8 1.6-1.1s1.3-.4 2.1-.4 1.5.1 2.1.4 1.2.6 1.6 1.1.8 1 1 1.7.4 1.4.4 2.2-.1 1.5-.4 2.2c-.2.7-.6 1.2-1 1.7s-1 .8-1.6 1.1-1.3.4-2.1.4-1.5-.1-2.1-.4-1.2-.6-1.6-1.1-.8-1-1-1.7-.4-1.4-.4-2.2.1-1.5.4-2.2.6-1.2 1-1.7m-3.6-27.4c.4-1 .6-2.1.6-3.2s-.2-2.2-.6-3.2-1-1.8-1.7-2.6c-.7-.7-1.6-1.3-2.6-1.7s-2.1-.6-3.2-.6c-1.2 0-2.2.2-3.2.6s-1.9 1-2.6 1.7-1.3 1.6-1.7 2.6-.6 2-.6 3.2.2 2.2.6 3.2 1 1.9 1.7 2.6 1.6 1.3 2.6 1.7 2.1.6 3.2.6c1.2 0 2.2-.2 3.2-.6s1.9-1 2.6-1.7 1.3-1.6 1.7-2.6m-2.5-3.2c0 .8-.1 1.5-.4 2.2-.2.7-.6 1.2-1 1.7s-1 .8-1.6 1.1-1.3.4-2.1.4-1.5-.1-2.1-.4-1.2-.6-1.6-1.1-.8-1-1-1.7-.4-1.4-.4-2.2.1-1.5.4-2.2c.2-.7.6-1.2 1-1.7s1-.8 1.6-1.1 1.3-.4 2.1-.4 1.5.1 2.1.4 1.2.6 1.6 1.1.8 1 1 1.7c.3.7.4 1.5.4 2.2m-12.7 31.2c-.4 1-.6 2.1-.6 3.3s.2 2.3.6 3.3 1 1.8 1.7 2.5 1.6 1.3 2.6 1.7 2.1.6 3.3.6c1.1 0 2.2-.2 3.2-.6s1.9-1 2.7-1.8l-2.1-2.1c-.5.6-1 1-1.6 1.3s-1.3.4-2.1.4-1.4-.1-2.1-.4c-.6-.3-1.1-.7-1.6-1.1-.4-.5-.8-1-1-1.7s-.4-1.3-.4-2 .1-1.4.3-2.1.5-1.3.9-1.8.9-.9 1.5-1.2 1.3-.4 2.1-.4 1.5.2 2.1.4c.6.3 1.2.7 1.7 1.3l2.2-2c-.8-.8-1.7-1.4-2.7-1.8s-2.1-.6-3.2-.6c-1.2 0-2.3.2-3.3.6s-1.8 1-2.5 1.7c-.8.7-1.3 1.5-1.7 2.5m-13.6-38.4c-.6-.5-.9-1.3-.9-2.3 0-.4.1-.7.2-1.1s.4-.8.7-1.2c.4-.4.8-.7 1.4-.9s1.3-.3 2.2-.3 1.7.2 2.5.6c.7.4 1.3.9 1.7 1.5l2.5-2.3c-.9-1.1-1.9-1.8-3-2.1-1.2-.4-2.4-.6-3.7-.6-1.4 0-2.6.2-3.6.6s-1.8 1-2.4 1.6-1.1 1.3-1.4 2.1-.4 1.5-.4 2.2c0 1.5.3 2.7.9 3.6s1.3 1.6 2.1 2.1 1.8.9 2.7 1.2c1 .3 1.9.6 2.7.9s1.5.7 2.1 1.2.9 1.2.9 2c0 .6-.1 1.2-.4 1.7s-.7.9-1.1 1.2c-.5.3-.9.6-1.5.7-.5.2-1.1.2-1.6.2-.9 0-1.8-.2-2.7-.6s-1.6-1-2.2-1.9l-2.6 2.2c.8 1.1 1.8 1.9 3.2 2.4 1.3.5 2.7.8 4.2.8 1.1 0 2.2-.2 3.1-.5 1-.3 1.8-.8 2.5-1.4s1.3-1.4 1.7-2.3.6-1.9.6-3c0-1.4-.3-2.5-.9-3.3s-1.3-1.4-2.1-1.9-1.8-.8-2.7-1.1-1.8-.4-2.6-.7-1.6-.8-2.1-1.3m-2.3 44.6-2.6 2.2c.8 1.1 1.8 1.9 3.2 2.4 1.3.5 2.7.8 4.2.8 1.1 0 2.2-.2 3.1-.5 1-.3 1.8-.8 2.5-1.4s1.3-1.4 1.7-2.3.6-1.9.6-3c0-1.4-.3-2.5-.9-3.3s-1.3-1.4-2.1-1.9-1.8-.8-2.7-1.1c-1-.3-1.9-.6-2.7-.9s-1.5-.8-2.1-1.3-.9-1.3-.9-2.3c0-.3.1-.7.2-1.1s.4-.8.7-1.2c.4-.4.8-.7 1.4-.9s1.3-.3 2.2-.3 1.7.2 2.5.6c.7.4 1.3.9 1.7 1.5l2.5-2.3c-.9-1.1-1.9-1.8-3-2.1-1.2-.4-2.4-.5-3.6-.5-1.4 0-2.6.2-3.6.6s-1.8 1-2.4 1.6-1.1 1.3-1.4 2.1-.4 1.5-.4 2.2c0 1.5.3 2.7.9 3.6s1.3 1.6 2.1 2.1 1.8.9 2.7 1.2 1.9.6 2.7.9 1.5.7 2.1 1.2.9 1.2.9 2c0 .6-.1 1.2-.4 1.7s-.7.9-1.1 1.2c-.5.3-.9.6-1.5.7-.5.2-1.1.2-1.6.2-.9 0-1.8-.2-2.7-.6s-1.6-1-2.2-1.8m64.2-19.9h-3v24.7h2.9v-24.7zm108.5-25.2h-2.9v15.5h2.9z" fill="#27224f"/><path d="m2.1 55.23 18.9-8.8c1.9-.9 3.3-2.6 3.7-4.7l8.4-40c.2-1.1-.9-2.1-1.9-1.6l-28.5 10.8c-1.5.6-2.4 1.9-2.4 3.5l-.3 39.5c0 1.1 1.1 1.8 2.1 1.3" fill="#27224f"/><path d="m9 104.33 33.2-18.4c1.2-.7 2-1.8 2.3-3.1l13.2-62.9c.4-1.8-1.4-3.3-3.1-2.6l-44.8 17.1c-2.2.8-3.7 2.9-3.7 5.3l-.6 62.5c0 1.9 1.9 3 3.5 2.1" fill="#e8388c"/><path d="m51 72.33-25-17v38.8c0 .5-.3.9-.7 1.1l-5.1 2.8v3.9c0 1.2.6 2.3 1.6 3l29.6 20.1c.9.6 2.1 0 2.1-1.1l.1-46.6c.1-2-.9-3.8-2.6-5" fill="#27224f"/><path d="m280.2 106.23v.5c0 .3-.1.6-.2.9s-.2.5-.4.7-.4.4-.7.5-.6.2-.9.2c-.5 0-.8-.1-1.1-.3s-.5-.5-.5-1 .2-.9.7-1.1 1.1-.3 2-.3zm-4.2-2.2c.3-.3.6-.5 1-.6s.8-.2 1.2-.2c.6 0 1 .1 1.3.4s.5.7.5 1.2v.2h-.5c-.5 0-.9 0-1.5.1-.5 0-1 .2-1.5.3-.5.2-.9.4-1.2.8-.3.3-.5.8-.5 1.4 0 .4.1.7.2.9.2.3.3.5.6.7.2.2.5.3.9.4.3.1.7.1 1.1.1.6 0 1-.1 1.4-.4.4-.2.7-.5 1-.9v.5c0 .2 0 .4.1.6h1.2c0-.2-.1-.4-.1-.6v-3.8c0-1-.2-1.9-.7-2.4s-1.2-.8-2.4-.8c-.5 0-1.1.1-1.6.3s-1 .5-1.3.9zm-8.5.9c.1-.3.3-.6.5-.9.2-.2.5-.4.8-.6.3-.1.7-.2 1.1-.2s.8.1 1.1.2.6.3.8.6c.2.2.4.5.5.9.1.3.2.7.2 1.1s-.1.7-.2 1.1c-.1.3-.3.6-.5.9-.2.2-.5.4-.8.6-.3.1-.7.2-1.1.2s-.8-.1-1.1-.2-.6-.3-.8-.6c-.2-.2-.4-.5-.5-.9-.1-.3-.2-.7-.2-1.1s.1-.8.2-1.1m-1.5 4.9h1.2v-1.3c.2.4.6.8 1.1 1.1s1.1.4 1.8.4c.5 0 1-.1 1.4-.3s.8-.5 1.2-.8c.3-.3.6-.8.8-1.2s.3-1 .3-1.5-.1-1.1-.3-1.5c-.2-.5-.4-.9-.8-1.2-.3-.3-.7-.6-1.2-.8s-1-.3-1.6-.3c-.5 0-1 .1-1.5.3-.4.2-.8.5-1.2.9v-5.7h-1.2zm-3.2 0h1.2v-12.2h-1.2zm-4.2-4.1h-4.6l2.4-5.6zm-7.8 4.1h1.5l1.1-2.8h5.7l1.1 2.8h1.5l-4.7-11.4h-1.2zm-6.3-3.6v.5c0 .3-.1.6-.1.9-.1.3-.2.5-.4.7s-.4.4-.7.5-.6.2-.9.2c-.5 0-.8-.1-1.1-.3s-.5-.5-.5-1 .2-.9.7-1.1 1.1-.3 2-.3zm-4-2.2c.3-.3.6-.5 1-.6s.8-.2 1.2-.2c.6 0 1 .1 1.3.4s.5.7.5 1.2v.2h-.5c-.4 0-.9 0-1.5.1-.5 0-1 .2-1.5.3-.5.2-.9.4-1.2.8-.3.3-.5.8-.5 1.4 0 .4.1.7.2.9.2.3.3.5.6.7.2.2.5.3.9.4.3.1.7.1 1.1.1.6 0 1-.1 1.4-.4.4-.2.7-.5 1-.9v.5c0 .2 0 .4.1.6h1.2c0-.2-.1-.4-.1-.6v-3.8c0-1-.2-1.9-.7-2.4s-1.3-.8-2.4-.8c-.5 0-1.1.1-1.6.3s-1 .5-1.3.9zm-2-1.8h-2.2v-2.2h-1.2v2.2h-1.6v1h1.6v4.1c0 .4 0 .7.1 1s.1.6.3.8c.1.2.4.4.6.5.3.1.6.2 1 .2.2 0 .5 0 .7-.1.2 0 .5-.1.7-.2l-.1-1.1c-.2.1-.3.2-.5.2s-.4.1-.5.1c-.3 0-.5 0-.6-.1-.2-.1-.3-.2-.3-.4-.1-.2-.1-.3-.1-.5v-4.4h2.2zm-7.4 7.6h1.2v-12.2h-1.2zm-3.2-3.6v.5c0 .3-.1.6-.2.9s-.2.5-.4.7-.4.4-.7.5-.6.2-.9.2c-.5 0-.8-.1-1.1-.3s-.5-.5-.5-1 .2-.9.7-1.1 1.1-.3 2-.3zm-4-2.2c.3-.3.6-.5 1-.6s.8-.2 1.2-.2c.6 0 1 .1 1.3.4s.5.7.5 1.2v.2h-.5c-.4 0-.9 0-1.5.1-.5 0-1 .2-1.5.3-.5.2-.9.4-1.2.8-.3.3-.5.8-.5 1.4 0 .4.1.7.2.9.1.3.3.5.6.7.2.2.5.3.9.4.3.1.7.1 1.1.1.6 0 1-.1 1.4-.4.4-.2.7-.5 1-.9v.5c0 .2 0 .4.1.6h1.2c0-.2-.1-.4-.1-.6v-3.8c0-1-.2-1.9-.7-2.4s-1.3-.8-2.4-.8c-.5 0-1.1.1-1.6.3s-1 .5-1.3.9zm-8.1 1.3c.1-.6.3-1.1.8-1.5.4-.4 1-.6 1.6-.6.7 0 1.2.2 1.6.6s.6.9.6 1.5zm4.8 2.4c-.3.4-.6.6-1 .8s-.8.3-1.3.3c-.3 0-.6-.1-.9-.2s-.5-.3-.7-.5-.4-.5-.5-.8-.2-.6-.2-.9h6.1v-.4c0-.6-.1-1.1-.2-1.6s-.4-.9-.7-1.2-.7-.6-1.1-.8-.9-.3-1.4-.3-1 .1-1.5.3-.9.5-1.2.8-.6.7-.8 1.2-.3 1-.3 1.5.1 1 .3 1.5.4.9.7 1.2.7.6 1.2.8 1 .3 1.5.3c.7 0 1.3-.1 1.9-.3.5-.2 1-.6 1.4-1.2zm-13 .8c.4.5.8.9 1.2 1.1s1 .3 1.6.3c.4 0 .7 0 1.1-.1s.7-.2.9-.4c.3-.2.5-.4.7-.7s.3-.6.3-1.1c0-.4-.1-.7-.2-.9-.1-.3-.3-.5-.5-.6-.2-.2-.5-.3-.8-.4s-.6-.2-.9-.2c-.2 0-.5-.1-.7-.2s-.4-.1-.6-.2-.3-.2-.4-.3-.1-.2-.1-.4 0-.3.1-.4.2-.2.3-.3.3-.1.5-.2c.2 0 .3-.1.5-.1.4 0 .7.1.9.2.2.2.5.4.6.6l1-.7c-.2-.5-.6-.8-1-1s-.9-.3-1.4-.3c-.3 0-.7.1-1 .1-.3.1-.6.2-.9.4s-.5.4-.6.7c-.2.3-.2.6-.2.9 0 .4.1.7.2.9s.3.4.6.6c.2.2.5.3.8.4s.6.2 1 .3c.2 0 .4.1.6.1s.4.1.5.2.3.2.4.3.1.3.1.5-.1.4-.1.5c-.1.1-.2.3-.4.4s-.3.2-.5.2-.4.1-.6.1c-.4 0-.8-.1-1.1-.3s-.6-.4-.8-.7zm-2.6-8.5c.2.2.4.3.6.3.3 0 .5-.1.6-.3.2-.2.3-.4.3-.6s-.1-.4-.3-.6-.4-.3-.6-.3c-.3 0-.5.1-.6.3-.2.2-.3.4-.3.6.1.2.2.4.3.6m.1 9.8h1.2v-7.5h-1.2zm-6-11.7h-1.8l2.3 2.3h1.1zm-2 6.8c.1-.3.3-.6.5-.9.2-.2.5-.4.8-.6.3-.1.7-.2 1.1-.2s.8.1 1.1.2.6.3.8.6c.2.2.4.5.5.9.1.3.2.7.2 1.1s-.1.7-.2 1.1c-.1.3-.3.6-.5.9-.2.2-.5.4-.8.6-.3.1-.7.2-1.1.2s-.8-.1-1.1-.2-.6-.3-.8-.6c-.2-.2-.4-.5-.5-.9-.1-.3-.2-.7-.2-1.1s.1-.8.2-1.1m-1.2 2.7c.2.5.5.9.8 1.2s.8.6 1.2.8c.5.2 1 .3 1.6.3s1.1-.1 1.6-.3.9-.5 1.2-.8.6-.7.8-1.2.3-1 .3-1.6-.1-1.1-.3-1.6-.5-.9-.8-1.2-.8-.6-1.2-.8c-.5-.2-1-.3-1.6-.3s-1.1.1-1.6.3-.9.5-1.2.8-.6.7-.8 1.2-.3 1-.3 1.6.1 1.2.3 1.6m-8.3 2.2h1.2v-3.6c0-.4 0-.8.1-1.1s.2-.6.4-.9.4-.4.7-.6c.3-.1.6-.2 1-.2.6 0 1 .2 1.3.5.3.4.4.8.4 1.4v4.5h1.2v-4.6c0-.4-.1-.8-.2-1.2s-.3-.7-.5-.9c-.2-.3-.5-.5-.9-.6s-.8-.2-1.2-.2c-.3 0-.5 0-.8.1s-.5.2-.7.3-.4.2-.5.4c-.1.1-.3.3-.3.4v-5.7h-1.2zm-1.8-10.3c-.4-.5-.9-.8-1.4-1s-1.1-.3-1.8-.3c-.5 0-1 .1-1.4.2s-.8.3-1.2.6-.6.6-.8 1-.3.9-.3 1.4.1.9.2 1.2.3.6.6.8.5.4.9.6c.3.2.7.3 1.1.4.5.2.9.3 1.3.4s.7.3.9.4c.2.2.4.3.5.6.1.2.2.5.2.8s-.1.6-.2.8-.3.4-.6.6c-.2.2-.5.3-.8.4s-.6.1-.9.1c-.5 0-.9-.1-1.4-.3-.4-.2-.8-.5-1-.9l-1.1.9c.2.3.4.5.7.7s.5.4.8.5.6.2.9.3.6.1 1 .1c.5 0 1-.1 1.4-.2.5-.1.9-.3 1.2-.6.4-.3.6-.6.9-1s.3-.9.3-1.4-.1-1-.3-1.3c-.2-.4-.4-.7-.7-.9s-.7-.4-1.1-.6-.8-.3-1.2-.4-.8-.3-1.1-.4-.5-.3-.7-.4c-.2-.2-.3-.3-.4-.5s-.1-.4-.1-.7.1-.6.2-.8.3-.4.5-.6c.2-.1.5-.2.8-.3s.6-.1.9-.1c.4 0 .8.1 1.1.2s.7.4.9.8zm-14.2 7.6c-.1.3-.3.6-.5.9-.2.2-.5.4-.8.6s-.7.2-1.1.2-.8-.1-1.1-.2-.6-.3-.8-.6c-.2-.2-.4-.5-.5-.9-.1-.3-.2-.7-.2-1.1s.1-.7.2-1.1c.1-.3.3-.6.5-.9.2-.2.5-.4.8-.6.3-.1.7-.2 1.1-.2s.8.1 1.1.2.6.3.8.6c.2.2.4.5.5.9.1.3.2.7.2 1.1s-.1.8-.2 1.1m.2 2.7h1.2v-12.1h-1.2v5.7c-.3-.4-.7-.7-1.2-.9-.4-.2-.9-.3-1.5-.3s-1.1.1-1.6.3-.9.5-1.2.8-.6.8-.8 1.2c-.2.5-.3 1-.3 1.5s.1 1.1.3 1.5.4.9.8 1.2c.3.3.7.6 1.2.8.4.2.9.3 1.4.3.6 0 1.2-.1 1.8-.4.5-.3.9-.6 1.1-1.1zm-14.7 0h1.2v-3.6c0-.4 0-.8.1-1.1s.2-.6.4-.9.4-.4.7-.6c.3-.1.6-.2 1-.2.6 0 1 .2 1.3.5s.4.8.4 1.4v4.5h1.2v-4.6c0-.4-.1-.8-.2-1.2s-.3-.7-.5-.9c-.2-.3-.5-.5-.9-.6s-.8-.2-1.2-.2c-.3 0-.5 0-.8.1s-.5.2-.7.3-.4.2-.5.4c-.1.1-.3.3-.3.4v-5.7h-1.2zm-1-6.5c-.4-.4-.8-.7-1.3-.9s-1-.3-1.5-.3-1.1.1-1.5.3c-.5.2-.9.5-1.2.8s-.6.8-.8 1.2c-.2.5-.3 1-.3 1.5s.1 1.1.3 1.5c.2.5.4.9.8 1.2.3.3.7.6 1.2.8s1 .3 1.5.3 1-.1 1.5-.3.9-.5 1.2-.9l-.9-.9c-.4.6-1.1.9-2 .9-.4 0-.7-.1-1-.2s-.6-.3-.8-.6-.4-.5-.5-.9c-.1-.3-.2-.7-.2-1.1s.1-.7.2-1.1c.1-.3.3-.6.5-.9s.5-.4.8-.6c.3-.1.7-.2 1.1-.2s.7.1 1 .2.6.4.8.7zm-9.4 2.9v.5c0 .3-.1.6-.2.9s-.2.5-.4.7-.4.4-.7.5-.6.2-.9.2c-.5 0-.8-.1-1.1-.3s-.5-.5-.5-1 .2-.9.7-1.1 1.1-.3 2-.3zm-4.1-2.1c.3-.3.6-.5 1-.6s.8-.2 1.2-.2c.6 0 1 .1 1.3.4s.5.7.5 1.2v.2h-.5c-.5 0-.9 0-1.5.1-.5 0-1 .2-1.5.3-.5.2-.9.4-1.2.8-.3.3-.5.8-.5 1.4 0 .4.1.7.2.9.1.3.3.5.6.7.2.2.5.3.9.4.3.1.7.1 1.1.1.6 0 1-.1 1.4-.4.4-.2.7-.5 1-.9v.5c0 .2 0 .4.1.6h1.2c0-.2-.1-.4-.1-.6v-3.9c0-1-.2-1.9-.7-2.4s-1.3-.8-2.4-.8c-.5 0-1.1.1-1.6.3s-1 .5-1.3.9zm-8 1.2c.1-.6.3-1.1.8-1.5.4-.4 1-.6 1.6-.6s1.2.2 1.6.6.6.9.6 1.5zm4.7 2.4c-.3.4-.6.6-1 .8s-.8.3-1.3.3c-.3 0-.6-.1-.9-.2s-.5-.3-.7-.5-.4-.5-.5-.8-.2-.6-.2-.9h6.1v-.4c0-.6-.1-1.1-.3-1.6s-.4-.9-.7-1.2-.7-.6-1.1-.8-.9-.3-1.4-.3-1 .1-1.5.3-.9.5-1.2.8-.6.7-.8 1.2-.3 1-.3 1.5.1 1 .3 1.5.4.9.7 1.2.7.6 1.2.8 1 .3 1.5.3c.7 0 1.3-.1 1.9-.3.5-.2 1-.6 1.4-1.2zm-6.7-5.5h-2.2v-2.2h-1.2v2.2h-1.6v1h1.6v4.1c0 .4 0 .7.1 1s.1.6.3.8c.1.2.4.4.6.5.3.1.6.2 1 .2.2 0 .5 0 .7-.1s.5-.1.7-.2l-.1-1.1c-.2.1-.3.2-.5.2s-.4.1-.5.1c-.3 0-.5 0-.6-.1s-.2-.2-.3-.4-.1-.3-.1-.5v-4.4h2.2zm-12.5 7.6h1.2v-3.6c0-.4 0-.8.1-1.1s.2-.6.4-.9.4-.4.7-.6c.3-.1.6-.2 1-.2.6 0 1 .2 1.3.5.3.4.4.8.4 1.4v4.5h1.2v-4.6c0-.4-.1-.8-.2-1.2s-.3-.7-.5-.9c-.2-.3-.5-.5-.9-.6s-.8-.2-1.2-.2c-.3 0-.6 0-.8.1s-.5.2-.7.3-.4.3-.5.4c-.2.2-.3.3-.4.5v-1.2h-1.2v1.7zm-3.2-9.8c.2.2.4.3.6.3.3 0 .5-.1.6-.3.2-.2.2-.4.2-.6s-.1-.4-.3-.6-.4-.3-.6-.3-.5.1-.6.3c-.2.2-.3.4-.3.6.1.3.2.5.4.6m-0 9.8h1.2v-7.5h-1.2zm-3.2-3.6v.5c0 .3-.1.6-.2.9s-.2.5-.4.7-.4.4-.7.5-.6.2-.9.2c-.5 0-.8-.1-1.1-.3s-.5-.5-.5-1 .2-.9.7-1.1 1.1-.3 2-.3c-.1-.1 1.1-.1 1.1-.1zm-4-2.1c.3-.3.6-.5 1-.6s.8-.2 1.2-.2c.6 0 1 .1 1.3.4s.5.7.5 1.2v.2h-.5c-.4 0-.9 0-1.5.1-.5 0-1 .2-1.5.3-.5.2-.9.4-1.2.8-.3.3-.5.8-.5 1.4 0 .4.1.7.2.9.1.3.3.5.6.7.2.2.5.3.9.4.3.1.7.1 1.1.1.6 0 1-.1 1.4-.4.4-.2.7-.5 1-.9v.5c0 .2 0 .4.1.6h1.2c0-.2-.1-.4-.1-.6v-3.9c0-1-.2-1.9-.7-2.4s-1.2-.7-2.2-.7c-.5 0-1.1.1-1.6.3s-1 .5-1.3.9zm-6 5.7h1.2v-3.6c0-.8.2-1.5.5-2.1s.9-.7 1.6-.7c.2 0 .4 0 .7.1l.1-1.2c-.1 0-.2-.1-.3-.1h-.3c-.3 0-.6 0-.8.1-.3.1-.5.2-.7.3s-.4.3-.5.4c-.2.2-.3.3-.4.5v-1.2h-1.2v1.7zm-3-3.6v.5c0 .3-.1.6-.2.9s-.2.5-.4.7-.4.4-.7.5-.6.2-.9.2c-.5 0-.8-.1-1.1-.3s-.5-.5-.5-1 .2-.9.7-1.1 1.1-.3 2-.3c-.2-.1 1.1-.1 1.1-.1zm-4.2-2.1c.3-.3.6-.5 1-.6s.8-.2 1.2-.2c.6 0 1 .1 1.3.4s.5.7.5 1.2v.2h-.5c-.5 0-.9 0-1.5.1-.5 0-1 .2-1.5.3-.5.2-.9.4-1.2.8-.3.3-.5.8-.5 1.4 0 .4.1.7.2.9.1.3.3.5.6.7.2.2.5.3.9.4.3.1.7.1 1.1.1.6 0 1-.1 1.4-.4.4-.2.7-.5 1-.9v.5c0 .2 0 .4.1.6h1.2c0-.2-.1-.4-.1-.6v-3.9c0-1-.2-1.9-.7-2.4s-1.3-.8-2.4-.8c-.5 0-1.1.1-1.6.3s-1 .5-1.3.9zm-6.3-5.9h-1.8l2.3 2.3h1.1zm-1.7 7.1c.1-.6.3-1.1.8-1.5s1-.6 1.6-.6c.7 0 1.2.2 1.6.6s.6.9.6 1.5zm4.8 2.4c-.3.4-.6.6-1 .8s-.8.3-1.3.3c-.3 0-.6-.1-.9-.2s-.5-.3-.7-.5-.4-.5-.5-.8-.2-.6-.2-.9h5.9v-.4c0-.6-.1-1.1-.3-1.6s-.4-.9-.7-1.2-.7-.6-1.1-.8-.9-.3-1.4-.3-1 .1-1.5.3-.9.5-1.2.8-.6.7-.8 1.2-.3 1-.3 1.5.1 1 .3 1.5.4.9.7 1.2.7.6 1.2.8 1 .3 1.5.3c.7 0 1.3-.1 1.9-.3.5-.2 1-.6 1.4-1.2zm-5.9-9.3h-8.9v1.2h3.7v10.1h1.3v-10h3.7z" fill="#e8388c"/></svg>