<?xml version="1.0" encoding="UTF-8"?>
<svg id="Layer_1" data-name="Layer 1" xmlns="http://www.w3.org/2000/svg" viewBox="0 0 420.47 104.63">
  <defs>
    <style>
      .cls-1 {
        fill: #0e5f5f;
      }
    </style>
  </defs>
  <g>
    <path class="cls-1" d="M83.2,29.03l-11.57-16.16v16.16h-3.89V6.85h3.99l11.34,15.73V6.85h3.89v22.18h-3.76Z"/>
    <path class="cls-1" d="M107.38,29.03l-1.63-4.26h-10.51l-1.63,4.26h-4.26l8.71-22.18h4.85l8.71,22.18h-4.26ZM100.49,10.14l-4.16,11.2h8.31l-4.16-11.2Z"/>
    <path class="cls-1" d="M117.19,29.03V10.27h-6.72v-3.42h17.32v3.42h-6.72v18.75h-3.89Z"/>
    <path class="cls-1" d="M131.09,29.03V6.85h3.89v22.18h-3.89Z"/>
    <path class="cls-1" d="M150.04,6.48c6.65,0,11.34,4.85,11.34,11.47s-4.69,11.47-11.34,11.47-11.34-4.85-11.34-11.47,4.69-11.47,11.34-11.47ZM150.04,9.94c-4.49,0-7.35,3.42-7.35,8.01s2.86,8.01,7.35,8.01,7.35-3.46,7.35-8.01-2.89-8.01-7.35-8.01Z"/>
    <path class="cls-1" d="M180.6,29.03l-11.57-16.16v16.16h-3.89V6.85h3.99l11.34,15.73V6.85h3.89v22.18h-3.76Z"/>
    <path class="cls-1" d="M204.77,29.03l-1.63-4.26h-10.51l-1.63,4.26h-4.26l8.71-22.18h4.85l8.71,22.18h-4.26ZM197.89,10.14l-4.16,11.2h8.31l-4.16-11.2Z"/>
    <path class="cls-1" d="M211.46,29.03V6.85h3.89v18.75h12.28v3.42h-16.17Z"/>
  </g>
  <g>
    <path class="cls-1" d="M307.22,104.2l-1.63-4.26h-10.51l-1.63,4.26h-4.26l8.71-22.18h4.85l8.71,22.18h-4.26ZM300.34,85.31l-4.16,11.2h8.31l-4.16-11.2Z"/>
    <path class="cls-1" d="M323.38,81.65c4.32,0,7.15,2.06,8.94,4.62l-3.19,1.8c-1.16-1.66-3.26-2.96-5.75-2.96-4.39,0-7.65,3.36-7.65,8.01s3.26,8.05,7.65,8.05c2.26,0,4.26-1.06,5.25-1.99v-3.46h-6.62v-3.42h10.51v8.31c-2.19,2.43-5.29,4.02-9.14,4.02-6.42,0-11.64-4.56-11.64-11.5s5.22-11.47,11.64-11.47Z"/>
    <path class="cls-1" d="M336.58,104.2v-22.18h15.19v3.42h-11.3v5.75h11.07v3.42h-11.07v6.15h11.3v3.42h-15.19Z"/>
    <path class="cls-1" d="M371.23,104.2l-11.57-16.16v16.16h-3.89v-22.18h3.99l11.34,15.73v-15.73h3.89v22.18h-3.76Z"/>
    <path class="cls-1" d="M378.71,93.12c0-6.82,5.09-11.47,11.47-11.47,4.65,0,7.41,2.33,9.08,4.99l-3.33,1.7c-1.06-1.83-3.19-3.23-5.75-3.23-4.22,0-7.48,3.36-7.48,8.01s3.26,8.01,7.48,8.01c2.56,0,4.69-1.36,5.75-3.23l3.33,1.7c-1.7,2.66-4.42,4.99-9.08,4.99-6.38,0-11.47-4.65-11.47-11.47Z"/>
    <path class="cls-1" d="M408.01,104.2v-9.21l-8.61-12.97h4.46l6.12,9.51,6.05-9.51h4.46l-8.58,12.97v9.21h-3.89Z"/>
  </g>
  <g>
    <path class="cls-1" d="M68.27,61.7c2.65,2.36,8.33,4.72,12.53,4.72,3.39,0,4.79-1.11,4.79-2.65,0-1.84-2.43-2.51-6.12-3.1-6.04-1.03-14.59-2.28-14.59-11.35,0-6.26,5.38-11.72,15.26-11.72,5.97,0,11.05,1.92,14.89,4.72l-4.35,7.52c-2.14-2.06-6.19-3.91-10.46-3.91-2.65,0-4.5.88-4.5,2.43s1.92,2.21,5.67,2.87c6.04,1.03,15.03,2.51,15.03,11.94,0,6.78-5.97,11.79-16.21,11.79-6.34,0-12.9-2.14-16.66-5.45l4.72-7.81Z"/>
    <path class="cls-1" d="M97.67,56.24c0-10.02,7.3-18.64,19.38-18.64s19.46,8.62,19.46,18.64-7.22,18.72-19.46,18.72-19.38-8.7-19.38-18.72ZM124.86,56.24c0-4.72-2.8-8.62-7.81-8.62s-7.66,3.91-7.66,8.62,2.73,8.7,7.66,8.7,7.81-3.91,7.81-8.7Z"/>
    <path class="cls-1" d="M157.36,37.6c7.66,0,12.45,3.39,14.59,6.56l-7.37,6.85c-1.4-2.06-3.68-3.39-6.71-3.39-4.72,0-8.33,3.24-8.33,8.62s3.61,8.7,8.33,8.7c3.02,0,5.31-1.47,6.71-3.46l7.37,6.93c-2.14,3.1-6.93,6.56-14.59,6.56-11.13,0-19.46-7.52-19.46-18.72s8.33-18.64,19.46-18.64Z"/>
    <path class="cls-1" d="M174.9,74.08v-35.6h11.35v35.6h-11.35Z"/>
    <path class="cls-1" d="M216.24,74.08v-4.13c-2.95,3.39-6.56,5.01-10.54,5.01-8.77,0-15.77-6.63-15.77-18.72s6.85-18.64,15.77-18.64c3.91,0,7.74,1.55,10.54,5.08v-4.2h11.28v35.6h-11.28ZM216.24,50.86c-1.47-1.92-4.42-3.17-6.85-3.17-4.5,0-7.81,3.24-7.81,8.55s3.32,8.7,7.81,8.7c2.43,0,5.38-1.33,6.85-3.24v-10.83Z"/>
    <path class="cls-1" d="M233.63,74.08V24.92h11.35v49.16h-11.35Z"/>
    <path class="cls-1" d="M293.53,74.08l-6.71-22.04-6.63,22.04h-12.23l-10.54-35.6h11.64l5.75,21.81,7-21.81h10.1l7,21.81,5.67-21.81h11.72l-10.54,35.6h-12.23Z"/>
    <path class="cls-1" d="M315.42,56.24c0-10.02,7.3-18.64,19.38-18.64s19.46,8.62,19.46,18.64-7.22,18.72-19.46,18.72-19.38-8.7-19.38-18.72ZM342.61,56.24c0-4.72-2.8-8.62-7.81-8.62s-7.66,3.91-7.66,8.62,2.73,8.7,7.66,8.7,7.81-3.91,7.81-8.7Z"/>
    <path class="cls-1" d="M358.01,74.08v-35.6h11.35v4.5c2.36-2.87,6.85-5.38,11.13-5.38v10.98c-.66-.22-1.62-.37-2.8-.37-2.95,0-6.85,1.25-8.33,3.32v22.55h-11.35Z"/>
    <path class="cls-1" d="M405.98,74.08l-7.81-12.6-3.39,4.05v8.55h-11.35V24.92h11.35v27.78l10.83-14.22h13.71l-13.12,16.21,13.78,19.38h-14Z"/>
  </g>
  <g>
    <path class="cls-1" d="M32.95,29.71c-.25.43-.04.79.46.79h18.84c.5,0,.75.38.55.83l-9.42,22.08c-.2.46-.71,1.04-1.13,1.3l-5.2,3.12c-.43.26-.37.47.13.47h12.57c.5,0,.81.4.68.88l-1.38,5.39c-.12.48-.51,1.17-.85,1.53l-7.05,7.38c-.34.36-1.01.79-1.48.95l-14.41,5c-.47.16-.99-.09-1.15-.56l-1.64-4.85c-.16-.47-.12-1.23.08-1.69l5.73-12.82c.2-.46-.04-.83-.54-.83h-2.43c-.5,0-1.1.36-1.34.8l-4.64,8.63c-.24.44-.84.8-1.34.8h-.79c-.5,0-.86-.4-.79-.9l1.8-14.32c.06-.49.29-1.27.5-1.72l3.66-7.63c.22-.45.14-.5-.17-.1l-6.03,7.74c-.31.39-.96.72-1.46.72h-4.07c-.5,0-.76-.38-.58-.85L24.55,14.36c.18-.47.73-.85,1.23-.85h15.46c.5,0,.7.35.46.79l-8.76,15.41Z"/>
    <path class="cls-1" d="M15.95,54.82c.35.05.5.49.36.96l-2.16,6.86c-.15.48-.68.86-1.18.86h-3.21c-.5,0-.66-.33-.37-.73l5.39-7.32c.3-.4.82-.69,1.16-.63Z"/>
    <path class="cls-1" d="M7.45,16.31c.14-.48.66-.87,1.16-.87h6.29c.5,0,.72.36.49.8L2.26,41.26c-.23.44-.78,1-1.22,1.24l-.46.25c-.44.24-.68.04-.55-.44l7.41-25.99Z"/>
    <path class="cls-1" d="M10.04,30.23c.09-.49.58-.89,1.08-.89h4.07c.5,0,.71.36.47.8l-4.64,8.54c-.24.44-.84.8-1.34.8h-.5c-.5,0-.83-.4-.74-.89l1.59-8.35Z"/>
    <path class="cls-1" d="M42.19,11.49c.5,0,1.1-.36,1.34-.8L48.94.8c.24-.44.03-.8-.47-.8h-3.69c-.5,0-1.01.39-1.14.88l-2.62,9.74c-.13.48.17.88.67.88h.5Z"/>
  </g>
</svg>