<?xml version="1.0" encoding="utf-8"?>
<!-- Generator: Adobe Illustrator 24.2.0, SVG Export Plug-In . SVG Version: 6.00 Build 0)  -->
<svg version="1.1" id="Layer_1" xmlns="http://www.w3.org/2000/svg" xmlns:xlink="http://www.w3.org/1999/xlink" x="0px" y="0px"
	 viewBox="0 0 24 24" style="enable-background:new 0 0 24 24;" xml:space="preserve">
<g transform="matrix(1,0,0,1,-138.462,-287.425)">
	<path d="M158.9,307.9h-3.6v-5.6c0-1.3,0-3-1.8-3c-1.9,0-2.1,1.4-2.1,2.9v5.7h-3.6v-11.5h3.4v1.6h0c0.7-1.2,2-1.9,3.4-1.8
		c3.6,0,4.3,2.4,4.3,5.5L158.9,307.9z M143.8,294.9C143.8,294.9,143.8,294.9,143.8,294.9c-1.1,0-2.1-0.9-2.1-2.1
		c0-1.1,0.9-2.1,2.1-2.1c1.1,0,2.1,0.9,2.1,2.1c0,0,0,0,0,0C145.9,293.9,144.9,294.9,143.8,294.9 M145.6,307.9H142v-11.5h3.6V307.9z
		 M160.7,287.4h-20.5c-1,0-1.8,0.8-1.8,1.7v20.5c0,1,0.8,1.7,1.8,1.7h20.5c1,0,1.8-0.8,1.8-1.7v-20.5
		C162.4,288.2,161.6,287.4,160.7,287.4"/>
</g>
</svg>
